<svg height="2200" width="3300" xmlns="http://www.w3.org/2000/svg"><path d="m0 0h3300v2200h-3300z" fill="#fff"/><path d="m263 292h2773" fill="none" stroke="#000" stroke-width=".5"/><g font-family="SF Pro,SF Pro Display,SF Pro Text,sans-serif" font-size="13"><text font-weight="bold" transform="translate(263 322)">Weight/Scale Variations</text><text text-anchor="middle" transform="translate(559.711 322)">Ultralight</text><text text-anchor="middle" transform="translate(856.422 322)">Thin</text><text text-anchor="middle" transform="translate(1153.13 322)">Light</text><text text-anchor="middle" transform="translate(1449.84 322)">Regular</text><text text-anchor="middle" transform="translate(1746.56 322)">Medium</text><text text-anchor="middle" transform="translate(2043.27 322)">Semibold</text><text text-anchor="middle" transform="translate(2339.98 322)">Bold</text><text text-anchor="middle" transform="translate(2636.69 322)">Heavy</text><text text-anchor="middle" transform="translate(2933.4 322)">Black</text></g><path d="m263 1903h2773" fill="none" stroke="#000" stroke-width=".5"/><path d="m9.24805.830078q1.62105 0 3.04685-.615234 1.4258-.615235 2.5147-1.708984 1.0888-1.09375 1.709-2.51953.6201-1.42578.6201-3.03711 0-1.61133-.6201-3.03712-.6202-1.4258-1.7139-2.5195-1.0938-1.0938-2.5195-1.709-1.4258-.6152-3.04692-.6152-1.61133 0-3.03711.6152-1.42578.6152-2.50976 1.709-1.08399 1.0937-1.70411 2.5195-.62011 1.42579-.62011 3.03712 0 1.61133.62011 3.03711.62012 1.42578 1.70899 2.51953 1.08887 1.093749 2.51465 1.708984 1.42578.615234 3.03711.615234zm0-1.484375q-1.32813 0-2.48535-.493163-1.15723-.49316-2.03125-1.37207-.87403-.87891-1.36719-2.04102-.49317-1.16211-.49317-2.49023 0-1.32813.48829-2.49024.48828-1.16208 1.3623-2.04098.87402-.8789 2.03125-1.3721 1.15723-.4932 2.48535-.4932 1.33792 0 2.49512.4932 1.1572.4932 2.0361 1.3721.8789.8789 1.377 2.04098.498 1.16211.498 2.49024 0 1.32812-.4931 2.49023-.4932 1.16211-1.3672 2.04102-.874.87891-2.0362 1.37207-1.1621.493163-2.49995.493163zm-3.40821-6.386723q0 .32227.20508.52247.20508.20019.54688.20019h1.91406v1.92383q0 .33203.20019.53711.2002.20508.52247.20508.33203 0 .5371-.20508.20508-.20508.20508-.53711v-1.92383h1.9238q.3321 0 .5371-.20019.2051-.2002.2051-.52247 0-.33203-.2051-.5371-.205-.20508-.5371-.20508h-1.9238v-1.91407q0-.34183-.20508-.54683-.20507-.2051-.5371-.2051-.32227 0-.52247.2051-.20019.205-.20019.54683v1.91407h-1.91406q-.3418 0-.54688.20508-.20508.20507-.20508.5371z" transform="translate(263 1933)"/><path d="m11.709 2.91016q2.041 0 3.8428-.78125 1.8017-.78125 3.1787-2.1582069 1.3769-1.3769531 2.1582-3.1787131.7812-1.80176.7812-3.84277 0-2.04102-.7812-3.84282-.7813-1.8017-2.1582-3.1787-1.377-1.3769-3.1836-2.1582-1.8067-.7812-3.8477-.7812-2.041 0-3.84275.7812-1.80176.7813-3.17383 2.1582-1.37207 1.377-2.15332 3.1787-.78125 1.8018-.78125 3.84282 0 2.04101.78125 3.84277.78125 1.80176 2.1582 3.1787131 1.37695 1.3769569 3.17871 2.1582069 1.80176.78125 3.84279.78125zm0-1.66016q-1.72853 0-3.23244-.644531-1.5039-.6445315-2.6416-1.782229-1.13769-1.13769-1.77734-2.6416-.63965-1.50391-.63965-3.23242 0-1.72852.63965-3.23242.63965-1.5039 1.77246-2.6465 1.13281-1.1426 2.63672-1.7822 1.5039-.6397 3.2324-.6397 1.7285 0 3.2324.6397 1.5039.6396 2.6465 1.7822 1.1426 1.1426 1.7871 2.6465.6446 1.5039.6446 3.23242 0 1.72851-.6397 3.23242-.6396 1.50391-1.7773 2.6416-1.1377 1.1376975-2.6465 1.782229-1.5088.644531-3.2373.644531zm-4.31642-8.29102q0 .35157.23437.57618.23438.22461.60547.22461h2.64648v2.66601q0 .36133.2246.59082.2246.22949.5762.22949.3711 0 .6055-.22949.2343-.22949.2343-.59082v-2.66601h2.6563q.3613 0 .5957-.22461.2344-.22461.2344-.57618 0-.37109-.2344-.60058-.2344-.22949-.5957-.22949h-2.6563v-2.64651q0-.3808-.2343-.6103-.2344-.2295-.6055-.2295-.3516 0-.5762.2295-.2246.2295-.2246.6103v2.64651h-2.64648q-.38086 0-.61035.22949-.22949.22949-.22949.60058z" transform="translate(281.867 1933)"/><path d="m14.9707 5.66406q2.0898 0 3.9893-.64941 1.8994-.64942 3.4912-1.82129 1.5918-1.17188 2.7685-2.763672 1.1768-1.591798 1.8262-3.496098.6494-1.90429.6494-3.98437 0-2.08984-.6494-3.98922-.6494-1.8995-1.8262-3.4912-1.1767-1.5918-2.7685-2.7686-1.5918-1.1768-3.4961-1.8262-1.9043-.6494-3.9942-.6494-2.0898 0-3.9892.6494-1.89943.6494-3.48635 1.8262-1.58691 1.1768-2.76367 2.7686-1.17676 1.5917-1.82129 3.4912-.64453 1.89938-.64453 3.98922 0 2.08008.64941 3.98437.64942 1.9043 1.82129 3.496098 1.17188 1.591792 2.76367 2.763672 1.5918 1.17187 3.49117 1.82129 1.8995.64941 3.9893.64941zm0-1.8164q-1.8066 0-3.4424-.55176-1.63572-.55176-2.99314-1.54785-1.35743-.996097-2.3584-2.358402-1.00098-1.362308-1.54785-2.998048-.54688-1.63574-.54688-3.44238 0-1.81641.54688-3.45212.54687-1.6358 1.54297-2.9981.99609-1.3623 2.35351-2.3584 1.35742-.9961 2.99321-1.5429 1.6357-.5469 3.4423-.5469 1.8164 0 3.4522.5469 1.6357.5468 2.998 1.5429 1.3623.9961 2.3584 2.3584.9961 1.3623 1.5479 2.9981.5517 1.63571.5517 3.45212.0098 1.80664-.5371 3.44238-.5468 1.63574-1.5478 2.998048-1.001 1.362305-2.3633 2.358402-1.3623.99609-2.998 1.54785-1.6358.55176-3.4522.55176zm-5.51758-10.88868q0 .38086.25879.62989.25879.24902.65919.24902h3.6914v3.70117q0 .40039.249.6543.249.25391.6299.25391.4102 0 .6641-.25391.2539-.25391.2539-.6543v-3.70117h3.7011q.4004 0 .6543-.24902.254-.24903.254-.62989 0-.41015-.254-.66406-.2539-.2539-.6543-.2539h-3.7011v-3.69142q0-.4101-.2539-.6641-.2539-.2539-.6641-.2539-.3809 0-.6299.2588-.249.2588-.249.6592v3.69142h-3.6914q-.41016 0-.66407.2539-.25391.25391-.25391.66406z" transform="translate(305.646 1933)"/><text font-family="SF Pro,SF Pro Display,SF Pro Text,sans-serif" font-size="13" font-weight="bold" transform="translate(263 1953)">Design Variations</text><text font-family="SF Pro,SF Pro Display,SF Pro Text,sans-serif" font-size="13" transform="translate(263 1971)">Symbols are supported in up to nine weights and three scales.</text><text font-family="SF Pro,SF Pro Display,SF Pro Text,sans-serif" font-size="13" transform="translate(263 1989)">For optimal layout with text and other symbols, vertically align</text><text font-family="SF Pro,SF Pro Display,SF Pro Text,sans-serif" font-size="13" transform="translate(263 2007)">symbols with the adjacent text.</text><path d="m776 1919v14" fill="none" stroke="#00aeef" stroke-width=".5"/><path d="m3.31055.15625q.39062 0 .60547-.16601562.21484-.16601538.35156-.57617238l1.25976-3.447262h5.76176l1.2597 3.447262q.1367.410157.3516.57617238.2148.16601562.5957.16601562.3906 0 .6201-.2148438.2295-.2148442.2295-.5859372 0-.22461-.1074-.527349l-4.5801-12.19722q-.17578-.4493-.47851-.6739-.30274-.2246-.77149-.2246-.9082 0-1.23047.8887l-4.58007 12.21679q-.10743.302735-.10743.527344 0 .371094.21973.5810551.21973.2099609.60059.2099609zm2.69531-5.67383 2.37305-6.57222h.04882l2.37307 6.57222z" transform="translate(776 1933)"/><path d="m793.197 1919v14" fill="none" stroke="#00aeef" stroke-width=".5"/><text font-family="SF Pro,SF Pro Display,SF Pro Text,sans-serif" font-size="13" font-weight="bold" transform="translate(776 1953)">Margins</text><text font-family="SF Pro,SF Pro Display,SF Pro Text,sans-serif" font-size="13" transform="translate(776 1971)">Leading and trailing margins on the left and right side of each symbol</text><text font-family="SF Pro,SF Pro Display,SF Pro Text,sans-serif" font-size="13" transform="translate(776 1989)">can be adjusted by modifying the x-location of the margin guidelines.</text><text font-family="SF Pro,SF Pro Display,SF Pro Text,sans-serif" font-size="13" transform="translate(776 2007)">Modifications are automatically applied proportionally to all</text><text font-family="SF Pro,SF Pro Display,SF Pro Text,sans-serif" font-size="13" transform="translate(776 2025)">scales and weights.</text><path d="m2.8418 1.86523 1.69922 1.70899q.64453.6543 1.3623.60547.71777-.04883 1.41113-.82031l10.69335-11.78711-.9668-.97657-10.61522 11.67969q-.26367.30273-.53223.3418-.26855.03906-.62011-.3125l-1.17188-1.16211q-.35156-.351564-.30761-.620119.04394-.268555.34667-.5419922l11.47458-10.8007688-.9765-.9668-11.59182 10.888662q-.74219.683594-.7959 1.396485-.05371.712893.59082 1.367183zm6.41601-18.19333q-.3125.3027-.35156.6933-.03906.3907.13672.6836.17578.2735.51269.4102.33692.1367.82524.0195 1.0937-.2539 2.2168-.2099 1.123.0439 2.1972.747l-.5859 1.4551q-.2539.625-.1416 1.0889.1123.4638.5127.874l2.2949 2.31445q.3613.37109.7031.42968.3418.0586.7617-.01953l1.0645-.19531.6641.67383-.0391.55664q-.0293.37109.0928.68359.122.3125.4834.67383l.7617.74219q.3613.36133.7861.37598.4248.01464.7764-.33692l2.9101-2.91992q.3516-.35156.3418-.7666-.0097-.41504-.3711-.77637l-.7714-.76172q-.3516-.36132-.6592-.49312-.3076-.1319-.669-.1026l-.5761.0488-.6446-.6347.2442-1.1231q.0976-.4199-.0391-.7861-.1367-.3662-.5762-.8057l-2.1972-2.1875q-1.25-1.2402-2.6612-1.8603-1.4111-.6201-2.8418-.6445-1.4306-.0245-2.7539.5224-1.3232.5469-2.40719 1.6309zm1.49419.3711q.9082-.6641 1.9482-.9473 1.04-.2832 2.1045-.1807 1.0644.1026 2.0654.5713 1.001.4688 1.8311 1.3086l2.4316 2.4121q.1758.1758.2197.3418.044.166-.0146.42l-.3223 1.4843 1.5039 1.4844.9864-.05859q.1855-.00977.2832.02441.0976.03418.2441.18066l.5762.57618-2.4414 2.4414-.5762-.57617q-.1465-.14648-.1856-.24414-.039-.09766-.0292-.29297l.0683-.97656-1.4941-1.48438-1.5235.25391q-.2441.04883-.3857.01465-.1416-.03418-.3272-.20996l-2.0019-2.00194q-.1953-.1758-.2197-.3369-.0244-.1612.0927-.4346l.8789-2.0898q-1.1718-1.0938-2.6367-1.5137-1.4648-.4199-2.9883.0293-.1171.0293-.1513-.044-.0342-.0732.0635-.1513z" transform="translate(1289 1933)"/><text font-family="SF Pro,SF Pro Display,SF Pro Text,sans-serif" font-size="13" font-weight="bold" transform="translate(1289 1953)">Exporting</text><text font-family="SF Pro,SF Pro Display,SF Pro Text,sans-serif" font-size="13" transform="translate(1289 1971)">Symbols should be outlined when exporting to ensure the</text><text font-family="SF Pro,SF Pro Display,SF Pro Text,sans-serif" font-size="13" transform="translate(1289 1989)">design is preserved when submitting to Xcode.</text><text font-family="SF Pro,SF Pro Display,SF Pro Text,sans-serif" font-size="13" text-anchor="end" transform="translate(3036 1933)">Template v.2.0</text><text font-family="SF Pro,SF Pro Display,SF Pro Text,sans-serif" font-size="13" text-anchor="end" transform="translate(3036 1951)">Requires Xcode 13 or greater</text><text font-family="SF Pro,SF Pro Display,SF Pro Text,sans-serif" font-size="13" text-anchor="end" transform="translate(3036 1969)">Generated from fork.knife</text><text font-family="SF Pro,SF Pro Display,SF Pro Text,sans-serif" font-size="13" text-anchor="end" transform="translate(3036 1987)">Typeset at 100 points</text><text font-family="SF Pro,SF Pro Display,SF Pro Text,sans-serif" font-size="13" transform="translate(263 726)">Small</text><text font-family="SF Pro,SF Pro Display,SF Pro Text,sans-serif" font-size="13" transform="translate(263 1156)">Medium</text><text font-family="SF Pro,SF Pro Display,SF Pro Text,sans-serif" font-size="13" transform="translate(263 1586)">Large</text><path d="m.976562 0h2.685548l25.68359-67.1387h.6836v-3.3203h-1.9043zm10.693338-24.4629h35.3028l-.7325-2.2461h-33.789zm43.4571 24.4629h2.6367l-27.1485-70.459h-1.1718v3.3203z" fill="#27aae1" transform="translate(339 696)"/><path d="m263 696h2773" fill="none" stroke="#27aae1" stroke-width=".5"/><path d="m263 625.541h2773" fill="none" stroke="#27aae1" stroke-width=".5"/><path d="m.976562 0h2.685548l25.68359-67.1387h.6836v-3.3203h-1.9043zm10.693338-24.4629h35.3028l-.7325-2.2461h-33.789zm43.4571 24.4629h2.6367l-27.1485-70.459h-1.1718v3.3203z" fill="#27aae1" transform="translate(339 1126)"/><path d="m263 1126h2773" fill="none" stroke="#27aae1" stroke-width=".5"/><path d="m263 1055.54h2773" fill="none" stroke="#27aae1" stroke-width=".5"/><path d="m.976562 0h2.685548l25.68359-67.1387h.6836v-3.3203h-1.9043zm10.693338-24.4629h35.3028l-.7325-2.2461h-33.789zm43.4571 24.4629h2.6367l-27.1485-70.459h-1.1718v3.3203z" fill="#27aae1" transform="translate(339 1556)"/><path d="m263 1556h2773" fill="none" stroke="#27aae1" stroke-width=".5"/><path d="m263 1485.54h2773" fill="none" stroke="#27aae1" stroke-width=".5"/><path d="m1403.85 1030.79v119.33" fill="none" stroke="#00aeef" stroke-width=".5"/><path d="m1495.84 1030.79v119.33" fill="none" stroke="#00aeef" stroke-width=".5"/><path d="m41.6992 38.8672q4.834 0 7.5928-2.6123 2.7588-2.6123 2.71-7.1045l-1.3184-73.6328q-.0488-2.7832.5859-3.9551.6348-1.1719 2.5391-2.0508 4.7852-2.2461 7.8857-4.956 3.1006-2.71 4.4678-6.958 1.3672-4.2481 1.0254-11.1329l-1.9531-38.3788q-.1465-2.783-1.6358-4.346-1.4892-1.562-3.9795-1.562-2.4902 0-3.8818 1.635-1.3916 1.636-1.3428 4.419l.5371 37.0121q.0489 1.9532-.9033 3.0274-.9521 1.0742-2.5146 1.0742-1.7578 0-2.6856-1.0254-.9277-1.0254-.9765-2.9297l-.7325-38.5256q-.0488-2.636-1.5136-4.223-1.4649-1.587-3.9063-1.587-2.4902 0-3.9551 1.587-1.4648 1.587-1.5136 4.223l-.6836 38.5256q-.0489 1.8555-1.0254 2.9053-.9766 1.0498-2.6367 1.0498-1.6602 0-2.6123-1.0742-.9522-1.0742-.9034-3.0274l.586-37.0121q.0488-2.783-1.3184-4.419-1.3672-1.635-3.9062-1.635-2.4903 0-3.9795 1.587-1.4893 1.587-1.6846 4.321l-1.9531 38.3788q-.3418 6.8848 1.0498 11.1329 1.3916 4.248 4.5166 6.958 3.125 2.7099 7.8613 4.956 1.9043.8789 2.5635 2.0508.6592 1.1719.6103 3.9551l-1.3671 73.6328q-.1465 4.541 2.6855 7.1289 2.832 2.5879 7.666 2.5879zm53.0762-58.8379-.9277 49.1211q-.0977 4.541 2.7099 7.1289 2.8076 2.5879 7.5924 2.5879 4.932 0 7.642-2.5635 2.71-2.5635 2.71-7.0068v-142.6759q0-2.539-1.489-4.053-1.49-1.513-3.833-1.513-2.002 0-3.54 1.098-1.538 1.099-3.296 3.54-4.0042 5.567-7.471 13.868-3.4668 8.3003-6.0791 18.1148-2.6123 9.8144-4.0771 19.9707-1.4648 10.1562-1.4648 19.4824v4.1992q0 3.8086 1.3183 6.3233 1.3184 2.5146 4.7852 4.9072l2.1972 1.416q1.8555 1.2695 2.5635 2.5635.708 1.2939.6592 3.4912z" transform="translate(2868.12 1556)"/><path d="m40.625 37.4512q4.5898 0 7.251-2.4903 2.6611-2.4902 2.6123-6.8359l-1.3184-72.8516q-.0488-2.539.6104-3.7109.6592-1.1719 2.417-2.002 4.6386-2.1484 7.6172-4.7363 2.9785-2.5879 4.2724-6.6162 1.294-4.0283 1.001-10.6201l-1.9043-38.3299q-.1465-2.637-1.5381-4.077-1.3916-1.441-3.7353-1.441-2.3438 0-3.6622 1.514-1.3183 1.514-1.2695 4.101l.4883 37.1098q.0488 1.9043-.9033 2.9297-.9522 1.0254-2.5147 1.0254-1.709 0-2.6367-1.001-.9277-1.0009-.9766-2.8076l-.7324-38.5253q-.0488-2.49-1.416-3.955-1.3672-1.465-3.6621-1.465-2.3438 0-3.7109 1.465-1.3672 1.465-1.4161 3.955l-.6835 38.5253q-.0489 1.8067-1.0254 2.8076-.9766 1.001-2.5879 1.001-1.6602 0-2.6123-1.0254-.9522-1.0254-.9034-2.9297l.5372-37.1098q.0488-2.587-1.2452-4.101-1.2939-1.514-3.6377-1.514-2.3437 0-3.7597 1.465-1.416 1.465-1.5625 4.053l-1.9043 38.3299q-.3418 6.5918.9765 10.6201 1.3184 4.0283 4.3213 6.6162 3.003 2.5879 7.5928 4.7363 1.8066.8301 2.4658 2.002.6592 1.1719.6104 3.7109l-1.3184 72.8516q-.1465 4.3945 2.5635 6.8604 2.71 2.4658 7.2998 2.4658zm52.002-57.6172-1.0743 48.1933q-.0976 4.4434 2.5879 6.9336 2.6856 2.4903 7.2754 2.4903 4.688 0 7.3-2.4414 2.612-2.4414 2.612-6.6895v-140.3323q0-2.49-1.465-3.906-1.465-1.416-3.613-1.416-1.953 0-3.418 1.074-1.465 1.074-3.1738 3.418-3.9551 5.518-7.3242 13.5744-3.3692 8.0567-5.8838 17.6026-2.5147 9.5459-3.9063 19.5312-1.3916 9.9854-1.3916 19.4092v4.0039q0 3.7109 1.294 6.2012 1.2939 2.4902 4.4678 4.6875l2.4902 1.6113q1.8066 1.2695 2.5391 2.5879.7324 1.3183.6836 3.4668z" transform="translate(2573.02 1556)"/><path d="m39.4531 35.8887q4.2969 0 6.836-2.3682 2.539-2.3682 2.4902-6.4697l-1.2695-72.0703q-.0489-2.2461.6103-3.418.6592-1.1719 2.3194-1.9531 4.4921-2.0508 7.2998-4.4922 2.8076-2.4414 4.0283-6.25 1.2207-3.8086.9277-10.0098l-1.8066-38.3304q-.1465-2.392-1.4405-3.735-1.2939-1.343-3.4912-1.343-2.1484 0-3.3691 1.392-1.2207 1.391-1.1719 3.784l.4883 37.1582q0 1.8555-.9522 2.8564-.9521 1.001-2.5146 1.001-1.6113 0-2.5879-.9765-.9766-.9766-.9766-2.7344l-.6835-38.5257q-.0489-2.295-1.3184-3.637-1.2695-1.343-3.418-1.343-2.1972 0-3.4668 1.343-1.2695 1.342-1.3183 3.637l-.6836 38.5257q0 1.7578-.9766 2.7344-.9766.9765-2.5879.9765-1.6113 0-2.5635-1.001-.9521-1.0009-.9033-2.8564l.4883-37.1582q0-2.393-1.1963-3.784-1.1963-1.392-3.3447-1.392-2.1973 0-3.4912 1.343-1.294 1.343-1.4404 3.735l-1.8555 38.3304q-.293 6.2012.9521 10.0098 1.2451 3.8086 4.0772 6.25 2.832 2.4414 7.2265 4.4922 1.709.7812 2.3682 1.9531.6592 1.1719.6592 3.418l-1.3184 72.0703q-.0976 4.1504 2.4658 6.4941 2.5635 2.3438 6.9092 2.3438zm50.6836-56.2989-1.1719 47.168q-.1464 4.3457 2.4414 6.7383 2.5879 2.3926 6.8848 2.3926 4.395 0 6.909-2.2949 2.515-2.295 2.515-6.3477v-137.7441q0-2.441-1.392-3.76-1.391-1.318-3.393-1.318-1.856 0-3.2718 1.05-1.416 1.049-3.0273 3.296-3.9063 5.419-7.1534 13.232-3.247 7.8125-5.664 17.0654-2.417 9.2529-3.7354 19.0674-1.3183 9.8144-1.3183 19.2382v3.8575q0 3.6133 1.2451 6.0302 1.2451 2.417 4.1748 4.419l2.832 1.9043q1.7578 1.2207 2.4903 2.5879.7324 1.3672.6347 3.4179z" transform="translate(2278.09 1556)"/><path d="m38.623 34.7656q4.1016 0 6.543-2.2705 2.4414-2.2705 2.3926-6.2256l-1.2207-71.4843q-.0488-2.0508.6103-3.2227.6592-1.1719 2.2706-1.9043 4.3457-1.9531 7.0556-4.2969 2.71-2.3437 3.8574-6.0058 1.1475-3.6621.9522-9.5703l-1.8067-38.3792q-.0976-2.246-1.3427-3.491-1.2451-1.245-3.2959-1.245-2.0508 0-3.1983 1.294-1.1474 1.294-1.1474 3.589l.4882 37.2068q0 1.7578-.9765 2.7343-.9766.9766-2.4902.9766-1.6114 0-2.5879-.9277-.9766-.9278-.9766-2.6368l-.6836-38.5742q-.0488-2.197-1.2451-3.418-1.1963-1.221-3.1983-1.221-2.0996 0-3.2959 1.221-1.1962 1.221-1.2451 3.418l-.6836 38.5742q0 1.6602-.9765 2.6124-.9766.9521-2.5879.9521-1.5625 0-2.5147-.9766-.9521-.9765-.9033-2.7343l.4395-37.2068q0-2.295-1.1231-3.589-1.123-1.294-3.1738-1.294-2.0996 0-3.3203 1.245-1.2207 1.245-1.3184 3.491l-1.8066 38.3792q-.293 5.9082.8789 9.5703 1.1719 3.6621 3.9062 6.0058 2.7344 2.3438 7.0313 4.2969 1.6113.7324 2.2949 1.9043.6836 1.1719.6348 3.2227l-1.2207 71.4843q-.1465 4.0039 2.3193 6.25 2.4658 2.2461 6.665 2.2461zm49.8536-55.3222-1.3184 46.3867q-.0977 4.3457 2.3926 6.6406 2.4902 2.2949 6.5918 2.2949 4.2484 0 6.6654-2.1728 2.417-2.1729 2.417-6.128v-135.9378q0-2.392-1.343-3.613-1.343-1.221-3.247-1.221-1.8069 0-3.1741 1.001-1.3671 1.001-2.8808 3.199-3.8574 5.419-7.0557 13.0367-3.1982 7.6172-5.5176 16.6504-2.3193 9.0332-3.5888 18.7256-1.2696 9.6923-1.2696 19.2138v3.6621q0 3.5645 1.2207 5.9571 1.2207 2.3925 3.9063 4.248l3.0762 2.0996q1.7089 1.1719 2.4658 2.5635.7568 1.3916.6592 3.3936z" transform="translate(1982.62 1556)"/><path d="m37.9883 33.9355q4.0039 0 6.3721-2.1972 2.3681-2.1973 2.3193-6.0547l-1.2207-71.0449q-.0488-1.9043.6103-3.0762.6592-1.1719 2.2217-1.9043 4.2481-1.8555 6.8604-4.126 2.6123-2.2705 3.7597-5.8349 1.1475-3.5645.9034-9.2774l-1.7579-38.3299q-.0976-2.149-1.2939-3.32-1.1963-1.172-3.1494-1.172-1.9531 0-3.0518 1.22-1.0986 1.221-1.0986 3.37l.4394 37.2554q.0489 1.7578-.9277 2.7099-.9766.9522-2.4902.9522-1.5625 0-2.5635-.9278-1.001-.9277-1.001-2.5879l-.6347-38.5738q-.0489-2.051-1.1963-3.223-1.1475-1.172-3.1006-1.172-2.002 0-3.1494 1.172-1.1475 1.172-1.1475 3.223l-.6836 38.5738q-.0488 1.6602-1.0254 2.5879-.9765.9278-2.539.9278-1.5625 0-2.5147-.9522-.9521-.9521-.9033-2.7099l.3906-37.2554q.0488-2.149-1.0498-3.37-1.0986-1.22-3.0517-1.22-2.002 0-3.1739 1.172-1.1718 1.171-1.2695 3.32l-1.7578 38.3299q-.2442 5.7129.8789 9.2774 1.123 3.5644 3.7598 5.8349 2.6367 2.2705 6.8847 4.126 1.5137.7324 2.1973 1.9043.6836 1.1719.6836 3.0762l-1.2696 71.0449q-.0976 3.9062 2.295 6.0791 2.3925 2.1728 6.4453 2.1728zm49.1699-54.5898-1.3672 45.8496q-.1465 4.2481 2.2949 6.4942 2.4414 2.246 6.3965 2.246 4.1016 0 6.4696-2.0996 2.368-2.0996 2.368-5.957v-134.5219q0-2.392-1.318-3.564-1.318-1.172-3.125-1.172-1.7579 0-3.1006 1.001-1.3428 1.001-2.8076 3.101-3.8575 5.371-6.9825 12.8659-3.125 7.4951-5.3955 16.3818-2.2705 8.8867-3.4912 18.4814-1.2207 9.5948-1.2207 19.1163v3.6132q0 3.4668 1.1963 5.835 1.1963 2.3682 3.7353 4.126l3.2715 2.2461q1.6602 1.1718 2.417 2.5879.7569 1.416.6592 3.3691z" transform="translate(1686.86 1556)"/><path d="m37.1582 32.8613q3.8086 0 6.1035-2.0996 2.2949-2.0996 2.2461-5.8594l-1.2207-70.4589q-.0488-1.709.6348-2.8809.6836-1.1719 2.1484-1.8555 4.1504-1.8066 6.6651-3.9795 2.5146-2.1728 3.5888-5.5664 1.0742-3.3935.8789-8.8623l-1.709-38.3298q-.0976-2.002-1.2207-3.101-1.123-1.098-2.9785-1.098-1.8554 0-2.8808 1.147-1.0254 1.147-1.0254 3.149l.4394 37.3051q0 1.709-.9765 2.6367-.9766.9277-2.4903.9277-1.5136 0-2.5146-.9033-1.001-.9033-1.001-2.5146l-.6348-38.5746q-.0488-1.953-1.123-3.027-1.0742-1.074-2.9297-1.074-1.9043 0-2.9785 1.074-1.0742 1.074-1.0742 3.027l-.6836 38.5746q0 1.6113-.9766 2.5146-.9765.9033-2.5391.9033-1.5136 0-2.4658-.9277-.9521-.9277-.9521-2.6367l.3906-37.3051q0-2.002-1.0254-3.149-1.0254-1.147-2.832-1.147-1.9043 0-3.0029 1.098-1.0987 1.099-1.1963 3.101l-1.709 38.3298q-.2442 5.4688.8301 8.8623 1.0742 3.3936 3.6132 5.5664 2.5391 2.1729 6.6407 3.9795 1.4648.6836 2.1484 1.8555.6836 1.1719.6836 2.8809l-1.2207 70.4589q-.0977 3.7598 2.1973 5.8594 2.2949 2.0996 6.1523 2.0996zm48.3398-53.6621-1.4648 45.1172q-.1465 4.1992 2.1973 6.3721 2.3437 2.1728 6.1523 2.1728 3.9063 0 6.2012-2.0019 2.295-2.002 2.295-5.7129v-132.7635q0-2.344-1.294-3.443-1.294-1.098-2.9541-1.098-1.709 0-3.003.976-1.2939.977-2.7099 3.028-3.8086 5.322-6.8604 12.6462-3.0517 7.3242-5.249 15.9912-2.1973 8.667-3.3691 18.1396-1.1719 9.4727-1.1719 19.043v3.4668q0 3.418 1.1719 5.7617 1.1718 2.3438 3.5156 3.9551l3.4668 2.3926q1.6601 1.1719 2.417 2.6123.7568 1.4404.6591 3.3447z" transform="translate(1391.37 1556)"/><path d="m36.4258 32.4219q3.6621 0 5.957-2.0508 2.2949-2.0508 2.2461-5.7129l-1.2207-70.0195q-.0488-1.7578.5859-2.8809.6348-1.123 2.0997-1.8066 4.1015-1.8067 6.4941-3.9795 2.3926-2.1729 3.3691-5.5664.9766-3.3936.7813-8.7647l-1.6602-37.8416q-.0976-1.856-1.1719-2.905-1.0742-1.05-2.832-1.05-1.8066 0-2.8076 1.098-1.001 1.099-1.001 3.003l.3906 36.7679q0 1.7578-.9277 2.6611-.9277.9033-2.3926.9033-1.4648 0-2.417-.8789-.9521-.8789-.9521-2.4902l-.6348-38.0862q-.0488-1.855-1.0742-2.881-1.0254-1.025-2.832-1.025-1.8067 0-2.832 1.025-1.0254 1.026-1.0254 2.881l-.6836 38.0862q0 1.6113-.9522 2.4902-.9521.8789-2.417.8789-1.4648 0-2.3926-.9033-.9277-.9033-.9277-2.6611l.3418-36.7679q0-1.904-.9766-3.003-.9765-1.098-2.7343-1.098-1.8067 0-2.8809 1.05-1.0742 1.049-1.123 2.905l-1.709 37.8416q-.2442 5.3711.7568 8.7647 1.001 3.3935 3.418 5.5664 2.417 2.1728 6.4697 3.9795 1.4649.6836 2.0996 1.8066.6348 1.1231.6348 2.8809l-1.2695 70.0195q-.0489 3.6621 2.2461 5.7129 2.2949 2.0508 5.957 2.0508zm47.0703-51.8555-1.6113 43.1641q-.1953 4.3945 2.1728 6.5429 2.3682 2.1485 6.0303 2.1485 3.7598 0 6.0547-1.9776 2.2949-1.9775 2.2949-5.6396v-131.6407q0-2.148-1.1475-3.198-1.1474-1.05-2.7588-1.05-1.6601 0-2.8564.928-1.1963.927-2.4658 2.734-3.8086 5.322-6.8115 12.5245-3.003 7.2022-5.1514 15.7471-2.1484 8.5449-3.2959 17.9932-1.1475 9.4482-1.1475 19.2138v4.0039q0 3.5645 1.1231 5.8594 1.123 2.2949 3.4668 3.9551l3.0762 2.1484q1.6601 1.1719 2.3925 2.7588.7325 1.5869.6348 3.7842z" transform="translate(1095.86 1556)"/><path d="m35.4492 31.8848q3.5156 0 5.8106-1.9776 2.2949-1.9775 2.2461-5.5908l-1.2696-69.3848q-.0488-1.8554.5127-2.9052.5615-1.0498 2.0752-1.7334 3.9551-1.8067 6.2256-4.0039 2.2705-2.1973 3.125-5.5664.8545-3.3692.6104-8.5938l-1.6114-37.2069q-.0488-1.709-1.0498-2.686-1.001-.976-2.7099-.976-1.709 0-2.6612 1.001-.9521 1.001-.9521 2.856l.3418 36.0842q0 1.8066-.9033 2.6611-.9034.8545-2.2705.8545-1.3184 0-2.2461-.8301-.9278-.8301-.9278-2.4902l-.6347-37.4025q0-1.758-.9766-2.734-.9766-.977-2.7344-.977-1.709 0-2.6855.977-.9766.976-.9766 2.734l-.6348 37.4025q0 1.6601-.9033 2.4902-.9033.8301-2.2705.8301-1.3672 0-2.2461-.8545-.8789-.8545-.8789-2.6611l.2442-36.0842q0-1.855-.9278-2.856-.9277-1.001-2.6367-1.001-1.709 0-2.6855.976-.9766.977-1.0743 2.686l-1.6113 37.2069q-.2441 5.2246.6104 8.5938.8545 3.3691 3.125 5.5664 2.2705 2.1972 6.2255 4.0039 1.5137.6836 2.0997 1.7334.5859 1.0498.4882 2.9052l-1.2207 69.3848q-.0976 3.6133 2.1973 5.5908 2.2949 1.9776 5.7617 1.9776zm45.4102-49.5118-1.8067 40.625q-.2441 4.5899 2.1485 6.7383 2.3926 2.1485 5.8593 2.1485 3.5645 0 5.8838-1.9776 2.3194-1.9775 2.3194-5.5908v-130.1274q0-1.953-1.001-2.929-1.001-.977-2.5147-.977-1.5625 0-2.6611.855-1.0986.854-2.1728 2.417-3.7598 5.273-6.7383 12.3044-2.9785 7.0312-5.0537 15.4541-2.0752 8.4228-3.1739 17.8467-1.0986 9.4238-1.0986 19.4336v4.6874q0 3.7598 1.0742 6.0059 1.0742 2.2461 3.418 3.9063l2.5879 1.8554q1.6601 1.2207 2.3437 2.9785.6836 1.7579.586 4.3457z" transform="translate(800.734 1556)"/><path d="m34.9609 31.5918q3.418 0 5.7129-1.9531 2.295-1.9532 2.2461-5.4688l-1.3183-69.0918q-.0489-1.9043.5127-2.9052.5615-1.001 2.0263-1.6846 3.9551-1.8067 6.128-4.0283 2.1728-2.2217 2.9785-5.5664.8056-3.3448.5615-8.5694l-1.5625-36.8162q-.0488-1.612-1.0254-2.564-.9766-.952-2.6367-.952-1.709 0-2.6123.977-.9033.976-.9033 2.734l.2929 35.7423q0 1.8555-.8789 2.6611-.8789.8057-2.1972.8057-1.3184 0-2.1973-.7812-.8789-.7813-.8789-2.4903l-.6836-37.0606q.0488-1.66-.9033-2.612-.9522-.952-2.6612-.952-1.6601 0-2.5879.952-.9277.952-.9277 2.612l-.6348 37.0606q0 1.709-.9033 2.4903-.9033.7812-2.2217.7812-1.2695 0-2.1484-.8057-.8789-.8056-.8789-2.6611l.2441-35.7423q0-1.758-.9277-2.734-.9277-.977-2.5879-.977-1.6113 0-2.5879.952-.9765.952-1.0254 2.564l-1.6113 36.8162q-.2441 5.2246.5615 8.5694.8057 3.3447 3.003 5.5664 2.1972 2.2216 6.1035 4.0283 1.5137.6836 2.0508 1.6846.5371 1.0009.4882 2.9052l-1.2695 69.0918q-.0488 3.5156 2.2461 5.4688 2.2949 1.9531 5.6152 1.9531zm44.5313-48.291-1.9043 39.3066q-.2441 4.6875 2.1484 6.836 2.3926 2.1484 5.8106 2.1484 3.4179 0 5.7373-1.9775 2.3193-1.9776 2.3193-5.542v-129.3943q0-1.758-.9033-2.71-.9033-.952-2.3682-.952-1.5136 0-2.539.83-1.0254.83-2.002 2.197-3.7598 5.273-6.7139 12.2314-2.9541 6.958-5.0048 15.3076-2.0508 8.3496-3.125 17.7491-1.0743 9.3994-1.0743 19.5068v5.0781q0 3.8574 1.0499 6.0547 1.0498 2.1973 3.3935 3.9063l2.2949 1.7089q1.6602 1.2207 2.3194 3.0762.6591 1.8555.5615 4.6387z" transform="translate(504.853 1556)"/><path d="m32.959 23.291q3.9062 0 6.1523-2.124 2.2461-2.124 2.1973-5.7373l-1.0742-57.5684q-.0489-2.3437.4394-3.247.4883-.9034 2.0508-1.6358 3.8086-1.8066 6.2744-4.0039 2.4658-2.1973 3.5645-5.6641 1.0986-3.4667.8056-9.082l-1.5136-29.5898q-.293-4.8337-4.5899-4.8337-2.0508 0-3.1738 1.3425-1.123 1.3427-1.0742 3.6377l.3906 28.4668q.0488 1.5625-.6836 2.3925-.7324.8301-1.9531.8301-1.3184 0-2.0264-.8057-.708-.8056-.7568-2.3193l-.586-29.6875q-.0488-2.1484-1.2207-3.4668-1.1718-1.3183-3.2226-1.3183-2.002 0-3.1983 1.3183-1.1962 1.3184-1.2451 3.4668l-.5371 29.6875q-.0488 1.4649-.7812 2.2949-.7325.8301-2.0508.8301-2.7832 0-2.6856-3.2226l.4883-28.4668q.0488-2.295-1.0742-3.6377-1.123-1.3425-3.1738-1.3425-2.0508 0-3.2715 1.318-1.2207 1.3184-1.3672 3.5157l-1.5625 29.5898q-.293 5.6153.8301 9.082 1.123 3.4668 3.5888 5.6641 2.4659 2.1973 6.3233 4.0039 1.5137.7324 2.0019 1.6358.4883.9033.4395 3.247l-1.0742 57.5684q-.0977 3.6621 2.1972 5.7617 2.295 2.0996 6.1524 2.0996zm41.6504-46.0449-.6348 38.1836q-.0488 3.6621 2.2217 5.7617 2.2705 2.0996 6.1279 2.0996 3.9551 0 6.1524-2.124 2.1972-2.124 2.1972-5.6885v-112.1582q0-1.9531-1.1474-3.1982-1.1475-1.2451-3.1006-1.2451-1.6113 0-2.832.879-1.2208.8788-2.5391 2.7342-3.1738 4.3457-5.9326 10.9619-2.7588 6.6163-4.8584 14.3799-2.0996 7.7637-3.2715 15.7959-1.1719 8.0323-1.1719 15.2588v3.5645q0 3.0761 1.0254 5.0537 1.0254 1.9775 3.9551 3.9795l1.3183.8789q1.4649.9765 2.002 1.9775.5371 1.001.4883 2.9053z" transform="translate(2881.84 1126)"/><path d="m32.0801 21.9727q3.7109 0 5.8349-2.002 2.1241-2.0019 2.0752-5.4687l-1.0254-56.9336q-.0488-2.0996.4639-3.003.5127-.9033 1.9775-1.5869 3.6622-1.709 6.0303-3.7842 2.3682-2.0752 3.3936-5.3466 1.0254-3.2715.7812-8.5938l-1.4648-29.6875q-.2442-4.4922-4.2969-4.4922-1.9043 0-2.9541 1.2451-1.0498 1.2452-1.0498 3.3936l.3906 28.6133q.0489 1.5136-.6836 2.3193-.7324.8057-1.9531.8057-1.3184 0-2.0508-.7813-.7324-.7812-.7324-2.1972l-.5859-29.834q-.0489-2.002-1.1475-3.2227-1.0986-1.2207-3.0029-1.2207-1.9043 0-3.0274 1.2207-1.123 1.2207-1.123 3.2227l-.5371 29.834q-.0488 1.3671-.8057 2.1728-.7568.8057-2.0264.8057-2.7832 0-2.6855-3.125l.4395-28.6133q.0488-2.1484-1.001-3.3936-1.0498-1.2451-2.9541-1.2451-1.9532 0-3.0762 1.2207-1.123 1.2207-1.2695 3.2715l-1.5137 29.6875q-.293 5.3223.7812 8.5938 1.0743 3.2714 3.4424 5.3466 2.3682 2.0752 6.0791 3.7842 1.4161.6836 1.9287 1.5869.5127.9034.4639 3.003l-1.0254 56.9336q-.0976 3.5156 2.0752 5.4931 2.1729 1.9776 5.835 1.9776zm40.8203-45.2149-.7324 37.6953q-.0489 3.5157 2.0996 5.5176 2.1484 2.002 5.8105 2.002 3.7598 0 5.8594-1.9776 2.0996-1.9775 2.0996-5.3955v-110.1074q0-1.9531-1.123-3.125-1.1231-1.1719-2.9297-1.1719-1.5625 0-2.7344.8545-1.1719.8545-2.4902 2.71-3.0762 4.2968-5.7618 10.6933-2.6855 6.3965-4.6875 13.9405-2.0019 7.5439-3.125 15.4052-1.123 7.8614-1.123 15.1367v3.2715q0 2.9297 1.001 4.8828 1.001 1.9532 3.6865 3.7598l1.6602 1.1719q1.416.9277 1.9775 1.9531.5615 1.0254.5127 2.7832z" transform="translate(2586.44 1126)"/><path d="m31.1035 20.5566q3.4668 0 5.4688-1.9043 2.0019-1.9043 2.0019-5.1757l-1.0254-56.25q-.0488-1.8067.4883-2.7344.5371-.9277 1.8555-1.5137 3.5156-1.6113 5.7617-3.5644 2.2461-1.9532 3.2471-5.0049 1.0009-3.0518.7568-7.9834l-1.416-29.7852q-.2442-4.1015-4.0039-4.1015-1.709 0-2.6856 1.123-.9765 1.1231-.9765 3.0762l.3906 28.8086q0 1.4648-.7324 2.2461-.7324.7812-1.9532.7812-1.2695 0-2.0263-.7568-.7569-.7569-.7569-2.124l-.5371-29.9317q-.0488-1.8555-1.0742-2.9541-1.0254-1.0986-2.7832-1.0986-1.7578 0-2.7832 1.0986-1.0254 1.0986-1.0742 2.9541l-.4883 29.9317q-.0488 1.3183-.8057 2.0996-.7568.7812-2.0263.7812-2.7832 0-2.7344-3.0273l.4395-28.8086q0-1.9531-.9522-3.0762-.9521-1.123-2.7099-1.123-1.8067 0-2.8565 1.0986-1.0498 1.0986-1.1475 3.0029l-1.4648 29.7852q-.2441 4.9316.7568 7.9834 1.001 3.0517 3.2471 5.0049 2.2461 1.9531 5.8106 3.5644 1.3183.586 1.831 1.5137.5127.9277.5127 2.7344l-1.0254 56.25q-.0488 3.3203 1.9776 5.2002 2.0263 1.8798 5.4931 1.8798zm39.9414-44.3359-.8789 37.1094q-.0488 3.4179 1.9776 5.3222 2.0263 1.9043 5.4931 1.9043 3.5156 0 5.5176-1.831 2.0019-1.8311 2.0019-5.1026v-107.8613q0-1.9043-1.123-2.9785-1.123-1.0742-2.7832-1.0742-1.4648 0-2.5879.8301-1.123.83-2.3926 2.5879-3.0761 4.248-5.6396 10.4248-2.5635 6.1767-4.4922 13.4765-1.9287 7.2998-2.9785 14.9658-1.0498 7.6661-1.0498 14.9414v2.9786q0 2.832.9765 4.7363.9766 1.9043 3.3692 3.5156l2.0996 1.416q1.3672.9766 1.9531 2.002.586 1.0254.5371 2.6367z" transform="translate(2291.2 1126)"/><path d="m30.3711 19.5312q3.3691 0 5.2734-1.8066 1.9043-1.8066 1.9043-4.9805l-1.0254-55.7129q0-1.6113.5371-2.539.5372-.9277 1.8067-1.5137 3.418-1.5625 5.5664-3.3935 2.1484-1.8311 3.1006-4.7364.9521-2.9052.7568-7.6416l-1.416-29.834q-.1953-3.8574-3.7598-3.8574-1.6113 0-2.539 1.0498-.9278 1.0498-.8789 2.9053l.3418 28.9551q0 1.3672-.7325 2.1484-.7324.7813-1.9531.7813-1.2695 0-2.0264-.7569-.7568-.7568-.7568-2.0752l-.5371-29.9804q-.0488-1.7578-1.001-2.7832-.9521-1.0254-2.6611-1.0254-1.6113 0-2.5879 1.0254-.9766 1.0254-.9766 2.7832l-.5371 29.9804q0 1.3184-.7812 2.0752-.7813.7569-2.0508.7569-2.7344 0-2.6855-2.9297l.3418-28.9551q.0488-1.8555-.8545-2.9053-.9034-1.0498-2.5635-1.0498-1.709 0-2.6856 1.0254-.9765 1.0254-1.0742 2.832l-1.416 29.834q-.2441 4.7364.7324 7.6416.9766 2.9053 3.125 4.7364 2.1485 1.831 5.5664 3.3935 1.3184.586 1.8311 1.5137.5127.9277.5127 2.539l-.9766 55.7129q-.0976 3.1739 1.8311 4.9805 1.9287 1.8066 5.249 1.8066zm39.3066-43.7011-.9277 36.7187q-.0488 3.3692 1.9043 5.1758 1.9531 1.8066 5.2246 1.8066 3.3691 0 5.2979-1.7333 1.9287-1.7334 1.9287-4.8584v-106.2989q0-1.8554-1.0987-2.8808-1.0986-1.0254-2.6611-1.0254-1.4648 0-2.5391.8056-1.0742.8057-2.3437 2.5635-2.9785 4.2481-5.4932 10.2539-2.5146 6.0059-4.3701 13.1104-1.8555 7.1045-2.8564 14.6728-1.001 7.5684-1.001 14.8438v2.7832q0 2.6855.9521 4.5898.9522 1.9043 3.1495 3.3692l2.3925 1.6113q1.3184.9277 1.9043 1.9775.586 1.0498.5371 2.5147z" transform="translate(1995.49 1126)"/><path d="m29.8828 18.75q3.2227 0 5.0781-1.7334 1.8555-1.7334 1.8067-4.8096l-.9766-55.3711q0-1.416.5371-2.3681.5371-.9522 1.7578-1.4893 3.3203-1.4648 5.42-3.2471 2.0996-1.7822 3.0273-4.5654.9277-2.7832.7324-7.3242l-1.3672-29.9316q-.1953-3.6133-3.6132-3.6133-1.5137 0-2.3926.9765-.8789.9766-.8789 2.7344l.3418 29.0527q0 1.3672-.7325 2.1241-.7324.7568-1.9531.7568-1.2695 0-2.0263-.7324-.7569-.7324-.7569-2.002l-.5371-30.0781q-.0488-1.709-.9521-2.6611-.9034-.9522-2.5147-.9522-1.5625 0-2.4902.9522-.9278.9521-.9766 2.6611l-.4883 30.0781q0 1.2696-.7812 2.002-.7813.7324-2.0508.7324-2.7344 0-2.7344-2.8809l.3907-29.0527q0-1.7578-.8545-2.7344-.8545-.9765-2.417-.9765-1.6114 0-2.5635.9521-.9522.9522-1.0498 2.6612l-1.3672 29.9316q-.1953 4.541.708 7.3242.9033 2.7832 3.0274 4.5654 2.124 1.7823 5.4443 3.2471 1.2207.5371 1.7578 1.4893.5371.9521.5371 2.3681l-.9766 55.3711q-.0488 3.0762 1.8067 4.8096 1.8555 1.7334 5.0781 1.7334zm38.8184-43.1641-.9766 36.377q-.0976 3.2715 1.7822 5.0293 1.8799 1.7578 5.0537 1.7578 3.2715 0 5.127-1.6357 1.8555-1.6358 1.8555-4.6631v-105.127q0-1.8554-1.0742-2.832-1.0743-.9766-2.5391-.9766-1.416 0-2.4902.8057-1.0743.8057-2.295 2.5146-2.9785 4.1993-5.4443 10.1075-2.4658 5.9082-4.2481 12.8906-1.7822 6.9824-2.7587 14.4287-.9766 7.4463-.9766 14.7217v2.6367q0 2.6367.9521 4.5166.9522 1.8799 2.9541 3.2471l2.6368 1.7578q1.3183.9277 1.9043 1.9531.5859 1.0254.5371 2.4902z" transform="translate(1699.56 1126)"/><path d="m29.1992 17.7734q3.0762 0 4.834-1.6601 1.7578-1.6602 1.7578-4.6387l-.9765-54.834q0-1.2695.5615-2.2217.5615-.9521 1.6845-1.4404 3.2227-1.416 5.2491-3.1006 2.0263-1.6845 2.9052-4.3213.879-2.6367.7325-6.9336l-1.3672-29.9804q-.1465-3.3692-3.3692-3.3692-1.416 0-2.2461.9034-.83.9033-.83 2.5634l.3418 29.1504q0 1.3184-.7569 2.0508-.7568.7324-1.9287.7324-1.2695 0-2.0508-.708-.7812-.708-.7812-1.9287l-.4883-30.1758q-.0488-1.5625-.9033-2.4414-.8545-.8789-2.3682-.8789-1.4648 0-2.3437.8789-.8789.8789-.8789 2.4414l-.4883 30.1758q0 1.2207-.8057 1.9287-.8056.708-2.0264.708-2.7343 0-2.7343-2.7832l.3418-29.1504q0-1.6601-.8057-2.5634-.8057-.9034-2.2705-.9034-1.5137 0-2.3926.8789-.8789.8789-.9765 2.4903l-1.3184 29.9804q-.1953 4.2969.6836 6.9336.8789 2.6368 2.9053 4.3213 2.0263 1.6846 5.249 3.1006 1.1719.4883 1.709 1.4404.5371.9522.5371 2.2217l-.9278 54.834q-.0488 2.9785 1.709 4.6387 1.7578 1.6601 4.834 1.6601zm38.2324-42.5781-1.0742 36.0352q-.0976 3.1738 1.709 4.8584 1.8066 1.6845 4.834 1.6845 3.0762 0 4.8828-1.538 1.8066-1.5381 1.8066-4.4678v-103.5645q0-1.8554-1.0742-2.7588-1.0742-.9033-2.4414-.9033-1.3672 0-2.3926.7813-1.0254.7812-2.2461 2.4902-2.9296 4.1504-5.3222 9.8877-2.3926 5.7373-4.126 12.5488-1.7334 6.8115-2.6611 14.1358-.9278 7.3242-.9278 14.6484v2.3926q0 2.539.9278 4.3945.9277 1.8555 2.7343 3.0762l2.9297 1.9531q1.2696.9277 1.8799 1.9775.6104 1.0499.5615 2.3682z" transform="translate(1403.85 1126)"/><path d="m28.5645 17.3828q2.9296 0 4.6875-1.6113 1.7578-1.6113 1.7578-4.4922l-.9766-54.4434q-.0488-1.3183.4639-2.2216.5127-.9034 1.6845-1.3916 3.125-1.4161 5.0538-3.125 1.9287-1.709 2.7343-4.3213.8057-2.6123.6592-6.8116l-1.3184-29.5898q-.1464-3.125-3.2226-3.125-1.3672 0-2.1484.8545-.7813.8545-.7813 2.417l.293 28.7109q0 1.3184-.7324 2.0264-.7325.708-1.9043.708-1.1719 0-1.9288-.6836-.7568-.6836-.7568-1.9043l-.4883-29.7363q0-1.4649-.8301-2.2949-.83-.8301-2.246-.8301-1.4161 0-2.2706.8301-.8544.83-.8544 2.2949l-.4883 29.7363q0 1.2207-.7569 1.9043-.7568.6836-1.9287.6836-2.5879 0-2.5879-2.7344l.293-28.7109q0-1.5625-.7812-2.417-.7813-.8545-2.1973-.8545-1.416 0-2.2705.8301-.8545.8301-.9522 2.2949l-1.2695 29.5898q-.1953 4.1993.6104 6.8116.8056 2.6123 2.7343 4.3213 1.9287 1.7089 5.0537 3.125 1.1719.4882 1.6846 1.3916.5127.9033.5127 2.2216l-.9766 54.4434q-.0488 2.8809 1.709 4.4922 1.7578 1.6113 4.7364 1.6113zm37.0605-40.9668-1.1719 34.2774q-.1465 3.3691 1.6846 5.0293 1.8311 1.6601 4.7119 1.6601 2.9297 0 4.7363-1.5381 1.8067-1.5381 1.8067-4.4189v-102.5391q0-1.709-.9522-2.539-.9521-.8301-2.2216-.8301-1.3672 0-2.295.7324-.9277.7324-2.0019 2.2461-2.9297 4.1016-5.2979 9.7412-2.3681 5.6397-4.0527 12.3291-1.6846 6.6895-2.5879 14.0137-.9033 7.3242-.9033 14.7949v2.8809q0 2.6855.9033 4.4921.9033 1.8067 2.71 3.0762l2.539 1.7578q1.2696.9278 1.8555 2.0996.5859 1.1719.5371 2.7344z" transform="translate(1108.21 1126)"/><path d="m27.6855 16.8945q2.7344 0 4.5166-1.5625 1.7823-1.5625 1.7334-4.3457l-.9765-53.9062q-.0488-1.416.415-2.2217.4639-.8057 1.6358-1.3428 3.0761-1.416 4.8584-3.125 1.7822-1.709 2.4658-4.2968.6836-2.5879.5371-6.7383l-1.2695-28.9551q-.0977-2.9297-2.9786-2.9297-1.3183 0-2.0751.8057-.7569.8056-.7569 2.2705l.293 28.125q0 1.3672-.7324 2.0263-.7325.6592-1.7578.6592-1.0743 0-1.8067-.6347-.7324-.6348-.7324-1.9043l-.4883-29.1504q0-1.3672-.7812-2.1485-.7813-.7812-2.0997-.7812-1.3671 0-2.124.7812-.7568.7813-.7568 2.1485l-.4883 29.1504q0 1.2695-.7568 1.9043-.7569.6347-1.7823.6347-2.4414 0-2.4414-2.6855l.2442-28.125q0-1.4649-.7569-2.2705-.7568-.8057-2.0752-.8057-1.3671 0-2.1484.7813-.7812.7812-.8301 2.1484l-1.2695 28.9551q-.1953 4.1504.5127 6.7383.708 2.5878 2.4902 4.2968 1.7823 1.709 4.8584 3.125 1.1719.5371 1.6358 1.3428.4638.8057.415 2.2217l-.9766 53.9062q-.0488 2.7832 1.7334 4.3457 1.7823 1.5625 4.5166 1.5625zm35.5469-38.8672-1.3672 32.0313q-.1464 3.5156 1.6846 5.1758 1.8311 1.6601 4.5654 1.6601 2.7832 0 4.5899-1.5381 1.8066-1.538 1.8066-4.3701v-101.1718q0-1.5137-.8056-2.295-.8057-.7812-2.0264-.7812-1.2207 0-2.0752.6836-.8545.6836-1.7334 1.9531-2.9297 4.0527-5.249 9.5459-2.3194 5.4932-3.9551 12.0605-1.6358 6.5674-2.4902 13.8672-.8545 7.2998-.8545 15.0147v3.5156q0 2.832.8545 4.5899.8544 1.7578 2.6611 3.0761l2.0996 1.4649q1.2695.9765 1.8311 2.2705.5615 1.2939.4638 3.247z" transform="translate(812.941 1126)"/><path d="m27.2461 16.6504q2.6367 0 4.4189-1.5381 1.7823-1.5381 1.7334-4.2725l-.9765-53.6621q-.0489-1.416.3662-2.1972.415-.7813 1.5869-1.3184 3.0273-1.416 4.7607-3.125 1.7334-1.709 2.3682-4.2969.6348-2.5879.4395-6.6406l-1.2207-28.7109q-.0977-2.7344-2.8809-2.7344-1.2695 0-1.9775.7568-.7081.7569-.7081 2.1241l.2442 27.832q0 1.416-.708 2.0752-.708.6592-1.7822.6592-.9766 0-1.6846-.6348-.708-.6348-.708-1.9531l-.4883-28.8575q0-1.2695-.7568-2.0019-.7569-.7324-2.0264-.7324-1.3184 0-2.0752.7324-.7568.7324-.7568 2.0019l-.4883 28.8575q0 1.3183-.708 1.9531-.708.6348-1.6846.6348-2.3926 0-2.3926-2.7344l.1953-27.832q0-1.3672-.708-2.1241-.708-.7568-2.0263-.7568-1.2696 0-2.0508.7324-.7813.7324-.8301 2.002l-1.2207 28.7109q-.1953 4.0527.4639 6.6406.6591 2.5879 2.3681 4.2969 1.709 1.709 4.7364 3.125 1.1718.5371 1.6113 1.3184.4394.7812.3906 2.1972l-1.0254 53.6621q-.0488 2.7344 1.7334 4.2725 1.7822 1.5381 4.4678 1.5381zm34.7656-37.8418-1.416 30.85937q-.1953 3.66213 1.6602 5.32223 1.8554 1.6602 4.4921 1.6602 2.6856 0 4.4922-1.5381 1.8067-1.5381 1.8067-4.3213v-100.4883q0-1.4648-.7324-2.1728-.7325-.708-1.8555-.708-1.2695 0-2.0508.6347-.7812.6348-1.5625 1.7579-2.9297 4.0527-5.2246 9.4726-2.2949 5.4199-3.9063 11.9141-1.6113 6.4941-2.4414 13.7939-.83 7.2998-.83 15.0635v3.8574q0 2.9785.83 4.7119.8301 1.7334 2.6368 3.0518l1.8554 1.3183q1.2696.9766 1.8067 2.3682.5371 1.3916.4394 3.4424z" transform="translate(516.962 1126)"/><path d="m26.0742 10.9863q3.125 0 4.9072-1.70896 1.7823-1.70898 1.7334-4.54101l-.83-45.26363q-.0489-1.9532.3418-2.6368.3906-.6836 1.6113-1.2695 3.0273-1.4648 4.9805-3.2226 1.9531-1.7579 2.832-4.5411.8789-2.7832.6348-7.2754l-1.2207-23.0957q-.2442-3.9062-3.6622-3.9062-1.6601 0-2.5634 1.0742-.9034 1.0742-.8545 2.9297l.3418 22.2168q.0976 2.5879-2.0508 2.5879-2.0996 0-2.1973-2.4902l-.4394-23.1934q-.0489-1.709-1.001-2.7832-.9522-1.0742-2.5635-1.0742-1.6113 0-2.5635 1.0742-.9521 1.0742-1.0009 2.7832l-.4395 23.1934q-.0976 2.4902-2.1973 2.4902-2.1484 0-2.0996-2.5879l.3907-22.2168q.0488-1.8555-.8545-2.9297-.9034-1.0742-2.5635-1.0742-3.4668 0-3.7109 3.9062l-1.22075 23.0957q-.24414 4.4922.63475 7.2754.8789 2.7832 2.8565 4.5411 1.9775 1.7578 5.0048 3.2226 1.2696.5859 1.6358 1.2695.3662.6836.3174 2.6368l-.8789 45.26363q-.0489 2.88086 1.7822 4.56543 1.831 1.68454 4.9072 1.68454zm32.8125-36.2304-.4883 29.98043q-.0488 2.88086 1.7823 4.56543 1.831 1.68454 4.9072 1.68454 3.1738 0 4.9072-1.70896 1.7334-1.70898 1.7334-4.54101v-88.42773q0-1.5625-.9033-2.5391-.9033-.9765-2.4658-.9765-1.2207 0-2.1973.6836-.9766.6836-2.0508 2.1484-2.4902 3.418-4.6631 8.6426-2.1728 5.2246-3.8574 11.4013-1.6846 6.1768-2.6123 12.5-.9277 6.3233-.9277 11.9873v2.9297q0 2.4414.8056 4.0039.8057 1.5625 3.1983 3.1739l.8789.5859q1.1719.7813 1.5869 1.5625.415.7813.3662 2.3438z" transform="translate(2892.65 696)"/><path d="m25.3906 9.91211q2.9785 0 4.6631-1.61133 1.6846-1.61133 1.6358-4.3457l-.7813-44.72658q-.0488-1.7578.3662-2.4658.4151-.708 1.5381-1.2451 2.9297-1.3672 4.8096-3.0274 1.8799-1.6601 2.7099-4.2724.8301-2.6123.6348-6.8604l-1.2207-23.2422q-.1953-3.6132-3.418-3.6132-1.5625 0-2.3926 1.0009-.83 1.001-.7812 2.71l.293 22.4121q.0976 2.5391-2.0508 2.5391-2.1485 0-2.2461-2.4414l-.3906-23.3399q-.0489-1.6113-.9522-2.5879-.9033-.9765-2.417-.9765-1.5136 0-2.3926.9765-.8789.9766-.9277 2.5879l-.4394 23.3399q-.0489 2.4414-2.1973 2.4414-2.1484 0-2.1484-2.5391l.3906-22.4121q0-1.709-.8301-2.71-.8301-1.0009-2.3926-1.0009-3.2226 0-3.4668 3.6132l-1.17185 23.2422q-.24414 4.2481.61035 6.8604.8545 2.6123 2.7588 4.2724 1.9043 1.6602 4.7852 3.0274 1.2207.5371 1.5869 1.2451.3662.708.3662 2.4658l-.8789 44.72658q-.0489 2.7832 1.6845 4.37012 1.7334 1.58691 4.6631 1.58691zm32.2754-35.74221-.5371 29.78518q-.0488 2.7832 1.6846 4.37012 1.7334 1.58691 4.6631 1.58691 2.9785 0 4.6386-1.58691 1.6602-1.58692 1.6602-4.27247v-86.86523q0-1.5625-.9033-2.4658-.9033-.9033-2.3682-.9033-1.1719 0-2.124.6836-.9522.6835-1.9776 2.0996-2.4902 3.4179-4.5898 8.4716-2.0996 5.0538-3.7109 11.0352-1.6114 5.9814-2.4903 12.1826-.8789 6.2012-.8789 11.8652v2.6368q0 2.2949.8057 3.833.8057 1.5381 2.9541 3.0029l1.2207.8301q1.1719.7812 1.5869 1.5625.415.7812.3662 2.1484z" transform="translate(2596.92 696)"/><path d="m24.6582 8.74023q2.7832 0 4.3701-1.51367 1.5869-1.51367 1.5381-4.10156l-.7812-44.2383q0-1.4648.415-2.1972.415-.7325 1.4893-1.2207 2.7832-1.2696 4.5654-2.8077 1.7822-1.5381 2.5879-3.9795.8056-2.4414.6103-6.3476l-1.123-23.4375q-.1953-3.3203-3.1739-3.3203-1.416 0-2.1972.9277-.7813.9277-.7813 2.4902l.3418 22.6563q.0489 2.3926-2.1484 2.3926-2.1484 0-2.1973-2.295l-.4394-23.5351q-.0489-1.5137-.8545-2.3926-.8057-.8789-2.2217-.8789-1.416 0-2.2217.8789-.8056.8789-.8545 2.3926l-.4394 23.5351q-.0488 2.295-2.2461 2.295-2.1485 0-2.0996-2.3926l.2929-22.6563q.0489-1.5625-.7324-2.4902-.7812-.9277-2.1972-.9277-3.0274 0-3.2227 3.3203l-1.12305 23.4375q-.19531 3.9062.61035 6.3476.8057 2.4414 2.6123 3.9795 1.8067 1.5381 4.5899 2.8077 1.0742.4882 1.4892 1.2207.415.7324.415 2.1972l-.83 44.2383q-.0489 2.63672 1.5625 4.12598 1.6113 1.48925 4.3945 1.48925zm31.6406-35.20503-.6347 29.54097q-.0489 2.68555 1.5625 4.17481 1.6113 1.48925 4.3945 1.48925 2.832 0 4.3945-1.46484 1.5625-1.46484 1.5625-4.00391v-85.05858q0-1.5625-.9033-2.417-.9033-.8545-2.2217-.8545-1.1719 0-2.0752.6592-.9033.6592-1.9775 2.124-2.3926 3.3203-4.419 8.2031-2.0263 4.8828-3.5644 10.669-1.5381 5.7861-2.3682 11.8164-.83 6.0303-.83 11.6943v2.2949q0 2.1973.7812 3.711.7812 1.5137 2.6855 2.7832l1.6602 1.123q1.1231.7325 1.5625 1.5137.4395.7813.3906 2.002z" transform="translate(2301.31 696)"/><path d="m24.1211 7.91016q2.6855 0 4.1992-1.44043 1.5137-1.44043 1.4649-3.9795l-.7813-43.79883q0-1.3184.4395-2.0508.4394-.7324 1.416-1.1718 2.6855-1.2208 4.4433-2.6856 1.7578-1.4648 2.5391-3.7598.7812-2.2949.5859-6.0546l-1.123-23.4864q-.1953-3.125-2.9785-3.125-1.3672 0-2.0996.8545-.7325.8545-.6836 2.3193l.2929 22.8028q0 2.3437-2.1484 2.3437-2.1973 0-2.2461-2.2461l-.3906-23.6328q-.0488-1.416-.8301-2.2217-.7812-.8056-2.0996-.8056-1.3184 0-2.0996.8056-.7813.8057-.8301 2.2217l-.3906 23.6328q-.0488 2.2461-2.2461 2.2461-2.1485 0-2.1485-2.3437l.293-22.8028q0-1.4648-.708-2.3193-.708-.8545-2.0264-.8545-2.8808 0-3.0761 3.125l-1.12308 23.4864q-.14648 3.7597.63478 6.0546.7812 2.295 2.5391 3.7598 1.7578 1.4648 4.4433 2.6856.9766.4394 1.416 1.1718.4395.7324.4395 2.0508l-.7813 43.79883q-.0488 2.53907 1.4893 3.9795 1.5381 1.44043 4.1748 1.44043zm31.2012-34.76566-.6348 29.34573q-.0977 2.53907 1.4404 3.9795 1.5381 1.44043 4.2237 1.44043 2.6855 0 4.1748-1.36719 1.4892-1.36719 1.4892-3.85742v-83.78905q0-1.5625-.8789-2.3438-.8789-.7812-2.1484-.7812-1.1231 0-2.002.6347-.8789.6348-1.9531 2.0997-2.3437 3.3203-4.3213 8.081-1.9775 4.7608-3.4424 10.376-1.4648 5.6152-2.2705 11.5478-.8056 5.9327-.8056 11.5967v2.0996q0 2.0508.7812 3.5401.7813 1.4892 2.4902 2.6611l1.9532 1.3184q1.0742.7324 1.5136 1.4892.4395.7569.3907 1.9287z" transform="translate(2005.38 696)"/><path d="m23.7305 7.32422q2.5879 0 4.0527-1.3916 1.4648-1.3916 1.416-3.88184l-.7812-43.50588q0-1.1719.4638-1.9287.4639-.7568 1.3916-1.1474 2.6368-1.2208 4.3213-2.6124 1.6846-1.3916 2.4414-3.5888.7569-2.1973.6104-5.7617l-1.1231-23.6329q-.1464-2.9296-2.832-2.9296-1.2695 0-1.9775.8056-.708.8057-.708 2.1729l.2929 22.9492q.0489 2.2461-2.1484 2.2461-2.1973 0-2.2461-2.1484l-.3906-23.7793q-.0489-1.3184-.7813-2.0752-.7324-.7569-2.0019-.7569-1.2696 0-2.002.7569-.7324.7568-.7812 2.0752l-.3907 23.7793q-.0488 2.1484-2.2949 2.1484-2.1484 0-2.1484-2.2461l.2929-22.9492q0-1.3672-.6835-2.1729-.6836-.8056-1.9532-.8056-2.7343 0-2.8808 2.9296l-1.12308 23.6329q-.14648 3.5644.63478 5.7617.7812 2.1972 2.4658 3.5888 1.6846 1.3916 4.3213 2.6124.9277.3906 1.3916 1.1474.4639.7568.4639 1.9287l-.7813 43.50588q-.0488 2.49024 1.416 3.88184 1.4649 1.3916 4.0528 1.3916zm30.8593-34.52152-.6836 29.19925q-.0976 2.53907 1.4161 3.93067 1.5136 1.3916 4.0527 1.3916 2.5879 0 4.0527-1.31836 1.4649-1.31836 1.4649-3.71094v-82.86132q0-1.5625-.8789-2.3193-.8789-.7569-2.0996-.7569-1.0743 0-1.9532.6348-.8789.6348-1.9531 2.0996-2.2949 3.2715-4.248 7.9346-1.9532 4.6631-3.3936 10.1806-1.4404 5.5176-2.1973 11.377-.7568 5.8594-.7568 11.5234v1.9043q0 2.002.7568 3.4912.7569 1.4893 2.3682 2.5635l2.1484 1.416q1.0743.7324 1.5137 1.4893.4395.7568.3906 1.831z" transform="translate(1709.23 696)"/><path d="m23.1934 6.49414q2.4902 0 3.8818-1.31836 1.3916-1.31836 1.3428-3.71094l-.7325-43.11524q0-1.0254.4639-1.7822.4639-.7569 1.3428-1.1475 2.539-1.123 4.1748-2.4414 1.6357-1.3183 2.3682-3.3935.7324-2.0752.5859-5.4444l-1.0742-23.7304q-.1465-2.7344-2.6856-2.7344-1.1718 0-1.831.7568-.6592.7569-.6592 2.0264l.293 23.0957q0 2.1973-2.1973 2.1973-2.2461 0-2.2461-2.0997l-.3906-23.8769q-.0489-1.2695-.7324-1.9531-.6836-.6836-1.9043-.6836-1.1719 0-1.8555.6836-.6836.6836-.7324 1.9531l-.3907 23.8769q0 2.0997-2.2949 2.0997-2.1484 0-2.1484-2.1973l.2441-23.0957q0-1.2695-.6347-2.0264-.6348-.7568-1.8067-.7568-2.5879 0-2.7344 2.7344l-1.07418 23.7304q-.14648 3.3692.61038 5.4444.7568 2.0752 2.3926 3.3935 1.6357 1.3184 4.1748 2.4414.8789.3906 1.3427 1.1475.4639.7568.4639 1.7822l-.7324 43.11524q-.0488 2.39258 1.3428 3.71094 1.3916 1.31836 3.833 1.31836zm30.4687-34.13084-.7324 29.05272q-.0977 2.4414 1.3183 3.75976 1.4161 1.31836 3.8575 1.31836 2.4902 0 3.8818-1.2207 1.3916-1.22071 1.3916-3.51563v-81.64061q0-1.5625-.8789-2.2705-.8789-.708-2.002-.708-1.0742 0-1.9287.6347-.8545.6348-1.8798 2.0508-2.295 3.2715-4.1993 7.8125-1.9043 4.541-3.2714 9.9121-1.3672 5.3711-2.0997 11.1328-.7324 5.7618-.7324 11.4258v1.6602q0 1.9043.7569 3.3691.7568 1.4649 2.1728 2.4414l2.4414 1.6114q1.0254.7324 1.4893 1.4892.4638.7568.415 1.6846z" transform="translate(1413.27 696)"/><path d="m22.6074 6.15234q2.3438 0 3.7354-1.26953 1.3916-1.26953 1.3916-3.61328l-.7813-42.77343q0-1.0742.4395-1.7822.4394-.708 1.3183-1.0987 2.4903-1.123 4.0284-2.4414 1.538-1.3183 2.1972-3.3935.6592-2.0752.5127-5.3467l-1.0254-23.3398q-.1465-2.5879-2.539-2.5879-1.1719 0-1.7823.708-.6103.708-.6103 1.9287l.2441 22.7051q0 2.1484-2.0996 2.1484-2.1484 0-2.1484-2.0508l-.3906-23.4863q0-1.1719-.6592-1.8311-.6592-.6591-1.8311-.6591-1.123 0-1.7822.6591-.6592.6592-.6592 1.8311l-.3906 23.4863q0 2.0508-2.1973 2.0508-2.0508 0-2.0508-2.1484l.1954-22.7051q0-1.2207-.6104-1.9287-.6103-.708-1.7334-.708-2.4414 0-2.5391 2.5879l-1.07418 23.3398q-.14648 3.2715.53708 5.3467.6836 2.0752 2.2217 3.3935 1.5381 1.3184 4.0283 2.4414.9278.3907 1.3428 1.0987.415.708.415 1.7822l-.7812 42.77343q-.0488 2.34375 1.3428 3.61328 1.3916 1.26953 3.7353 1.26953zm29.4434-32.71484-.8301 27.539062q-.0977 2.539058 1.3184 3.857418 1.416 1.31836 3.7597 1.31836 2.3438 0 3.7598-1.2207 1.416-1.2207 1.416-3.4668v-80.71284q0-1.4649-.7812-2.1241-.7813-.6591-1.8555-.6591-1.0254 0-1.8311.5859-.8056.5859-1.6845 1.8555-2.295 3.2226-4.1504 7.6904-1.8555 4.4678-3.1983 9.7412-1.3427 5.2734-2.0507 11.0107-.7081 5.7373-.7081 11.5479v2.0996q0 2.002.7325 3.4424.7324 1.4404 2.1484 2.417l2.0996 1.4648q1.0254.7324 1.4893 1.5869.4638.8545.3662 2.0264z" transform="translate(1117.51 696)"/><path d="m21.875 5.71289q2.1484 0 3.54-1.2207 1.3916-1.22071 1.3916-3.4668l-.7812-42.33399q-.0488-1.0742.3418-1.7334.3906-.6592 1.3183-1.0986 2.3926-1.0742 3.8331-2.417 1.4404-1.3428 2.0019-3.3936.5615-2.0508.415-5.2734l-1.0253-22.8027q-.0977-2.3438-2.3926-2.3438-1.0254 0-1.6114.6592-.5859.6592-.5859 1.7822l.1953 22.168q0 2.0996-1.9531 2.0996-2.002 0-2.002-2.002l-.3906-22.9492q0-1.0742-.6103-1.6846-.6104-.6103-1.6846-.6103-1.0742 0-1.6846.6103-.6103.6104-.6592 1.6846l-.3906 22.9492q0 2.002-2.0019 2.002-1.9532 0-1.9532-2.0996l.1954-22.168q0-1.123-.586-1.7822-.5859-.6592-1.6601-.6592-2.2461 0-2.3438 2.3438l-.97655 22.8027q-.14648 3.2226.41505 5.2734.5615 2.0508 1.9775 3.3936 1.416 1.3428 3.8575 2.417.9277.4394 1.2939 1.0986.3662.6592.3174 1.7334l-.7324 42.33399q-.0489 2.24609 1.3427 3.4668 1.3916 1.2207 3.5889 1.2207zm28.125-30.85939-1.0254 25.488297q-.1465 2.734373 1.294 4.052733 1.4404 1.31836 3.6376 1.31836 2.1973 0 3.6133-1.19629 1.416-1.19629 1.416-3.44238v-79.49222q0-1.2695-.6591-1.8799-.6592-.6103-1.6358-.6103-.9765 0-1.6601.5371-.6836.5371-1.416 1.5625-2.295 3.2227-4.126 7.544-1.8311 4.3212-3.1006 9.4726-1.2695 5.1514-1.9531 10.8887-.6836 5.7373-.6836 11.6943v2.6856q0 2.1484.6836 3.54.6836 1.3916 2.0996 2.417l1.709 1.2207q1.0254.7324 1.4648 1.7334.4395 1.001.3418 2.4658z" transform="translate(822.072 696)"/><path d="m21.4844 5.51758q2.0508 0 3.4424-1.2207 1.3916-1.22071 1.3916-3.369146l-.7813-42.138634q-.0488-1.1231.3174-1.7334.3662-.6104 1.2939-1.0498 2.3926-1.0743 3.7598-2.417 1.3672-1.3428 1.8555-3.3936.4883-2.0508.3418-5.2246l-.9766-22.5098q-.0488-2.2461-2.2461-2.2461-1.0742 0-1.6357.6104-.5616.6103-.5616 1.7334l.1954 21.875q0 2.0996-1.8555 2.0996-1.9531 0-1.9531-2.002l-.3907-22.6562q0-1.0742-.5859-1.6602-.5859-.5859-1.6113-.5859-1.0742 0-1.6602.5859-.5859.586-.5859 1.6602l-.3906 22.6562q0 2.002-1.9043 2.002-1.9043 0-1.9043-2.0996l.1464-21.875q0-1.1231-.5615-1.7334-.5615-.6104-1.5869-.6104-2.1973 0-2.2461 2.2461l-.97655 22.5098q-.14648 3.1738.36625 5.2246.5127 2.0508 1.8798 3.3936 1.3672 1.3427 3.7598 2.417.9277.4394 1.2695 1.0498.3418.6103.293 1.7334l-.7812 42.138634q-.0489 2.148436 1.3427 3.369146 1.3916 1.2207 3.5401 1.2207zm27.3926-29.93168-1.0743 24.4629281q-.1465 2.8320319 1.294 4.1503919 1.4404 1.31836 3.54 1.31836 2.1485 0 3.5645-1.2207 1.416-1.22071 1.416-3.417974v-78.906206q0-1.1719-.586-1.7579-.5859-.5859-1.5624-.5859-.9278 0-1.587.5127-.6591.5127-1.2451 1.4404-2.2949 3.1739-4.1015 7.4463-1.8067 4.2725-3.0762 9.375-1.2695 5.1026-1.9287 10.8155-.6592 5.7128-.6592 11.8164v2.9296q0 2.2461.6592 3.6133.6592 1.3672 2.0752 2.3926l1.5136 1.1231q1.0254.7324 1.4405 1.8066.415 1.0742.3174 2.6855z" transform="translate(526.02 696)"/></svg>