<svg height="2200" width="3300" xmlns="http://www.w3.org/2000/svg"><path d="m0 0h3300v2200h-3300z" fill="#fff"/><path d="m263 292h2773" fill="none" stroke="#000" stroke-width=".5"/><g font-family="sans-serif" font-size="13"><text font-weight="bold" transform="translate(263 322)">Weight/Scale Variations</text><text text-anchor="middle" transform="translate(559.711 322)">Ultralight</text><text text-anchor="middle" transform="translate(856.422 322)">Thin</text><text text-anchor="middle" transform="translate(1153.13 322)">Light</text><text text-anchor="middle" transform="translate(1449.84 322)">Regular</text><text text-anchor="middle" transform="translate(1746.56 322)">Medium</text><text text-anchor="middle" transform="translate(2043.27 322)">Semibold</text><text text-anchor="middle" transform="translate(2339.98 322)">Bold</text><text text-anchor="middle" transform="translate(2636.69 322)">Heavy</text><text text-anchor="middle" transform="translate(2933.4 322)">Black</text></g><path d="m263 1903h2773" fill="none" stroke="#000" stroke-width=".5"/><path d="m9.24805.830078q1.62105 0 3.04685-.615234 1.4258-.615235 2.5147-1.708984 1.0888-1.09375 1.709-2.51953.6201-1.42578.6201-3.03711 0-1.61133-.6201-3.03712-.6202-1.4258-1.7139-2.5195-1.0938-1.0938-2.5195-1.709-1.4258-.6152-3.04692-.6152-1.61133 0-3.03711.6152-1.42578.6152-2.50976 1.709-1.08399 1.0937-1.70411 2.5195-.62011 1.42579-.62011 3.03712 0 1.61133.62011 3.03711.62012 1.42578 1.70899 2.51953 1.08887 1.093749 2.51465 1.708984 1.42578.615234 3.03711.615234zm0-1.484375q-1.32813 0-2.48535-.493163-1.15723-.49316-2.03125-1.37207-.87403-.87891-1.36719-2.04102-.49317-1.16211-.49317-2.49023 0-1.32813.48829-2.49024.48828-1.16208 1.3623-2.04098.87402-.8789 2.03125-1.3721 1.15723-.4932 2.48535-.4932 1.33792 0 2.49512.4932 1.1572.4932 2.0361 1.3721.8789.8789 1.377 2.04098.498 1.16211.498 2.49024 0 1.32812-.4931 2.49023-.4932 1.16211-1.3672 2.04102-.874.87891-2.0362 1.37207-1.1621.493163-2.49995.493163zm-3.40821-6.386723q0 .32227.20508.52247.20508.20019.54688.20019h1.91406v1.92383q0 .33203.20019.53711.2002.20508.52247.20508.33203 0 .5371-.20508.20508-.20508.20508-.53711v-1.92383h1.9238q.3321 0 .5371-.20019.2051-.2002.2051-.52247 0-.33203-.2051-.5371-.205-.20508-.5371-.20508h-1.9238v-1.91407q0-.34183-.20508-.54683-.20507-.2051-.5371-.2051-.32227 0-.52247.2051-.20019.205-.20019.54683v1.91407h-1.91406q-.3418 0-.54688.20508-.20508.20507-.20508.5371z" transform="translate(263 1933)"/><path d="m11.709 2.91016q2.041 0 3.8428-.78125 1.8017-.78125 3.1787-2.1582069 1.3769-1.3769531 2.1582-3.1787131.7812-1.80176.7812-3.84277 0-2.04102-.7812-3.84282-.7813-1.8017-2.1582-3.1787-1.377-1.3769-3.1836-2.1582-1.8067-.7812-3.8477-.7812-2.041 0-3.84275.7812-1.80176.7813-3.17383 2.1582-1.37207 1.377-2.15332 3.1787-.78125 1.8018-.78125 3.84282 0 2.04101.78125 3.84277.78125 1.80176 2.1582 3.1787131 1.37695 1.3769569 3.17871 2.1582069 1.80176.78125 3.84279.78125zm0-1.66016q-1.72853 0-3.23244-.644531-1.5039-.6445315-2.6416-1.782229-1.13769-1.13769-1.77734-2.6416-.63965-1.50391-.63965-3.23242 0-1.72852.63965-3.23242.63965-1.5039 1.77246-2.6465 1.13281-1.1426 2.63672-1.7822 1.5039-.6397 3.2324-.6397 1.7285 0 3.2324.6397 1.5039.6396 2.6465 1.7822 1.1426 1.1426 1.7871 2.6465.6446 1.5039.6446 3.23242 0 1.72851-.6397 3.23242-.6396 1.50391-1.7773 2.6416-1.1377 1.1376975-2.6465 1.782229-1.5088.644531-3.2373.644531zm-4.31642-8.29102q0 .35157.23437.57618.23438.22461.60547.22461h2.64648v2.66601q0 .36133.2246.59082.2246.22949.5762.22949.3711 0 .6055-.22949.2343-.22949.2343-.59082v-2.66601h2.6563q.3613 0 .5957-.22461.2344-.22461.2344-.57618 0-.37109-.2344-.60058-.2344-.22949-.5957-.22949h-2.6563v-2.64651q0-.3808-.2343-.6103-.2344-.2295-.6055-.2295-.3516 0-.5762.2295-.2246.2295-.2246.6103v2.64651h-2.64648q-.38086 0-.61035.22949-.22949.22949-.22949.60058z" transform="translate(281.867 1933)"/><path d="m14.9707 5.66406q2.0898 0 3.9893-.64941 1.8994-.64942 3.4912-1.82129 1.5918-1.17188 2.7685-2.763672 1.1768-1.591798 1.8262-3.496098.6494-1.90429.6494-3.98437 0-2.08984-.6494-3.98922-.6494-1.8995-1.8262-3.4912-1.1767-1.5918-2.7685-2.7686-1.5918-1.1768-3.4961-1.8262-1.9043-.6494-3.9942-.6494-2.0898 0-3.9892.6494-1.89943.6494-3.48635 1.8262-1.58691 1.1768-2.76367 2.7686-1.17676 1.5917-1.82129 3.4912-.64453 1.89938-.64453 3.98922 0 2.08008.64941 3.98437.64942 1.9043 1.82129 3.496098 1.17188 1.591792 2.76367 2.763672 1.5918 1.17187 3.49117 1.82129 1.8995.64941 3.9893.64941zm0-1.8164q-1.8066 0-3.4424-.55176-1.63572-.55176-2.99314-1.54785-1.35743-.996097-2.3584-2.358402-1.00098-1.362308-1.54785-2.998048-.54688-1.63574-.54688-3.44238 0-1.81641.54688-3.45212.54687-1.6358 1.54297-2.9981.99609-1.3623 2.35351-2.3584 1.35742-.9961 2.99321-1.5429 1.6357-.5469 3.4423-.5469 1.8164 0 3.4522.5469 1.6357.5468 2.998 1.5429 1.3623.9961 2.3584 2.3584.9961 1.3623 1.5479 2.9981.5517 1.63571.5517 3.45212.0098 1.80664-.5371 3.44238-.5468 1.63574-1.5478 2.998048-1.001 1.362305-2.3633 2.358402-1.3623.99609-2.998 1.54785-1.6358.55176-3.4522.55176zm-5.51758-10.88868q0 .38086.25879.62989.25879.24902.65919.24902h3.6914v3.70117q0 .40039.249.6543.249.25391.6299.25391.4102 0 .6641-.25391.2539-.25391.2539-.6543v-3.70117h3.7011q.4004 0 .6543-.24902.254-.24903.254-.62989 0-.41015-.254-.66406-.2539-.2539-.6543-.2539h-3.7011v-3.69142q0-.4101-.2539-.6641-.2539-.2539-.6641-.2539-.3809 0-.6299.2588-.249.2588-.249.6592v3.69142h-3.6914q-.41016 0-.66407.2539-.25391.25391-.25391.66406z" transform="translate(305.646 1933)"/><text font-family="sans-serif" font-size="13" font-weight="bold" transform="translate(263 1953)">Design Variations</text><text font-family="sans-serif" font-size="13" transform="translate(263 1971)">Symbols are supported in up to nine weights and three scales.</text><text font-family="sans-serif" font-size="13" transform="translate(263 1989)">For optimal layout with text and other symbols, vertically align</text><text font-family="sans-serif" font-size="13" transform="translate(263 2007)">symbols with the adjacent text.</text><path d="m776 1919v14" fill="none" stroke="#00aeef" stroke-width=".5"/><path d="m3.31055.15625q.39062 0 .60547-.16601562.21484-.16601538.35156-.57617238l1.25976-3.447262h5.76176l1.2597 3.447262q.1367.410157.3516.57617238.2148.16601562.5957.16601562.3906 0 .6201-.2148438.2295-.2148442.2295-.5859372 0-.22461-.1074-.527349l-4.5801-12.19722q-.17578-.4493-.47851-.6739-.30274-.2246-.77149-.2246-.9082 0-1.23047.8887l-4.58007 12.21679q-.10743.302735-.10743.527344 0 .371094.21973.5810551.21973.2099609.60059.2099609zm2.69531-5.67383 2.37305-6.57222h.04882l2.37307 6.57222z" transform="translate(776 1933)"/><path d="m793.197 1919v14" fill="none" stroke="#00aeef" stroke-width=".5"/><text font-family="sans-serif" font-size="13" font-weight="bold" transform="translate(776 1953)">Margins</text><text font-family="sans-serif" font-size="13" transform="translate(776 1971)">Leading and trailing margins on the left and right side of each symbol</text><text font-family="sans-serif" font-size="13" transform="translate(776 1989)">can be adjusted by modifying the x-location of the margin guidelines.</text><text font-family="sans-serif" font-size="13" transform="translate(776 2007)">Modifications are automatically applied proportionally to all</text><text font-family="sans-serif" font-size="13" transform="translate(776 2025)">scales and weights.</text><path d="m2.8418 1.86523 1.69922 1.70899q.64453.6543 1.3623.60547.71777-.04883 1.41113-.82031l10.69335-11.78711-.9668-.97657-10.61522 11.67969q-.26367.30273-.53223.3418-.26855.03906-.62011-.3125l-1.17188-1.16211q-.35156-.351564-.30761-.620119.04394-.268555.34667-.5419922l11.47458-10.8007688-.9765-.9668-11.59182 10.888662q-.74219.683594-.7959 1.396485-.05371.712893.59082 1.367183zm6.41601-18.19333q-.3125.3027-.35156.6933-.03906.3907.13672.6836.17578.2735.51269.4102.33692.1367.82524.0195 1.0937-.2539 2.2168-.2099 1.123.0439 2.1972.747l-.5859 1.4551q-.2539.625-.1416 1.0889.1123.4638.5127.874l2.2949 2.31445q.3613.37109.7031.42968.3418.0586.7617-.01953l1.0645-.19531.6641.67383-.0391.55664q-.0293.37109.0928.68359.122.3125.4834.67383l.7617.74219q.3613.36133.7861.37598.4248.01464.7764-.33692l2.9101-2.91992q.3516-.35156.3418-.7666-.0097-.41504-.3711-.77637l-.7714-.76172q-.3516-.36132-.6592-.49312-.3076-.1319-.669-.1026l-.5761.0488-.6446-.6347.2442-1.1231q.0976-.4199-.0391-.7861-.1367-.3662-.5762-.8057l-2.1972-2.1875q-1.25-1.2402-2.6612-1.8603-1.4111-.6201-2.8418-.6445-1.4306-.0245-2.7539.5224-1.3232.5469-2.40719 1.6309zm1.49419.3711q.9082-.6641 1.9482-.9473 1.04-.2832 2.1045-.1807 1.0644.1026 2.0654.5713 1.001.4688 1.8311 1.3086l2.4316 2.4121q.1758.1758.2197.3418.044.166-.0146.42l-.3223 1.4843 1.5039 1.4844.9864-.05859q.1855-.00977.2832.02441.0976.03418.2441.18066l.5762.57618-2.4414 2.4414-.5762-.57617q-.1465-.14648-.1856-.24414-.039-.09766-.0292-.29297l.0683-.97656-1.4941-1.48438-1.5235.25391q-.2441.04883-.3857.01465-.1416-.03418-.3272-.20996l-2.0019-2.00194q-.1953-.1758-.2197-.3369-.0244-.1612.0927-.4346l.8789-2.0898q-1.1718-1.0938-2.6367-1.5137-1.4648-.4199-2.9883.0293-.1171.0293-.1513-.044-.0342-.0732.0635-.1513z" transform="translate(1289 1933)"/><text font-family="sans-serif" font-size="13" font-weight="bold" transform="translate(1289 1953)">Exporting</text><text font-family="sans-serif" font-size="13" transform="translate(1289 1971)">Symbols should be outlined when exporting to ensure the</text><text font-family="sans-serif" font-size="13" transform="translate(1289 1989)">design is preserved when submitting to Xcode.</text><text font-family="sans-serif" font-size="13" text-anchor="end" transform="translate(3036 1933)">Template v.3.0</text><text font-family="sans-serif" font-size="13" text-anchor="end" transform="translate(3036 1951)">Requires Xcode 13 or greater</text><text font-family="sans-serif" font-size="13" text-anchor="end" transform="translate(3036 1969)">Generated from arrowshape.turn.up.backward</text><text font-family="sans-serif" font-size="13" text-anchor="end" transform="translate(3036 1987)">Typeset at 100 points</text><text font-family="sans-serif" font-size="13" transform="translate(263 726)">Small</text><text font-family="sans-serif" font-size="13" transform="translate(263 1156)">Medium</text><text font-family="sans-serif" font-size="13" transform="translate(263 1586)">Large</text><path d="m.976562 0h2.685548l25.68359-67.1387h.6836v-3.3203h-1.9043zm10.693338-24.4629h35.3028l-.7325-2.2461h-33.789zm43.4571 24.4629h2.6367l-27.1485-70.459h-1.1718v3.3203z" fill="#27aae1" transform="translate(339 696)"/><path d="m263 696h2773" fill="none" stroke="#27aae1" stroke-width=".5"/><path d="m263 625.541h2773" fill="none" stroke="#27aae1" stroke-width=".5"/><path d="m.976562 0h2.685548l25.68359-67.1387h.6836v-3.3203h-1.9043zm10.693338-24.4629h35.3028l-.7325-2.2461h-33.789zm43.4571 24.4629h2.6367l-27.1485-70.459h-1.1718v3.3203z" fill="#27aae1" transform="translate(339 1126)"/><path d="m263 1126h2773" fill="none" stroke="#27aae1" stroke-width=".5"/><path d="m263 1055.54h2773" fill="none" stroke="#27aae1" stroke-width=".5"/><path d="m.976562 0h2.685548l25.68359-67.1387h.6836v-3.3203h-1.9043zm10.693338-24.4629h35.3028l-.7325-2.2461h-33.789zm43.4571 24.4629h2.6367l-27.1485-70.459h-1.1718v3.3203z" fill="#27aae1" transform="translate(339 1556)"/><path d="m263 1556h2773" fill="none" stroke="#27aae1" stroke-width=".5"/><path d="m263 1485.54h2773" fill="none" stroke="#27aae1" stroke-width=".5"/><path d="m1387.86 1030.79v119.33" fill="none" stroke="#00aeef" stroke-width=".5"/><path d="m1511.83 1030.79v119.33" fill="none" stroke="#00aeef" stroke-width=".5"/><path d="m75.5371 26.3672q5.1758 0 8.6914-3.4912 3.5156-3.4912 3.5156-8.667v-17.91994h.6836q9.2774 0 15.8933 2.58789 6.617 2.58789 11.231 7.17774 4.614 4.58981 7.983 10.54691 2.686 4.7363 5.64 6.665 2.954 1.9287 6.86 1.9287 5.762 0 8.862-5.7861 3.101-5.7862 3.101-17.5049 0-16.0645-3.857-28.7109-3.858-12.6465-11.451-21.46-7.592-8.8135-18.701-13.4033-11.108-4.5899-25.5613-4.5899h-.6836v-18.2129q0-5.2246-3.5156-8.789-3.5156-3.5645-8.7402-3.5645-3.1738 0-5.9326 1.3184-2.7588 1.3183-6.2745 4.541l-50.4882 46.582q-1.9532 1.8067-2.95413 4.2725-1.00098 2.4658-1.00098 4.9072 0 2.2949 1.02539 4.8584 1.02542 2.5635 2.97852 4.3701l50.4394 46.6309q3.2227 3.0273 6.0547 4.3701 2.8321 1.3428 6.2012 1.3428zm-5.3223-25.00001q-.4882 0-.9277-.488284l-37.3047-35.156206q-.2929-.293-.415-.5127-.1221-.2198-.1221-.4151 0-.2441.1221-.4638.1221-.2198.415-.5127l37.3047-35.3028q.1953-.1953.4395-.2685.2441-.0733.4882-.0733 1.1231 0 1.1231 1.1719v19.8731q0 2.0507 2.0019 2.0507h7.129q12.5488 0 21.9972 3.2715 9.448 3.2715 15.82 9.4483 6.372 6.1767 9.644 15.0146 3.271 8.8379 3.466 19.92188 0 .488282-.39.488282-.147 0-.269-.097656-.122-.097656-.268-.341796-3.809-7.61719-10.62-12.13381-6.812-4.5166-16.651-6.5185-9.8386-2.002-22.7292-2.002h-7.129q-2.0019 0-2.0019 2.002v19.824184q0 1.220706-1.1231 1.220706z" transform="translate(2851.76 1556)"/><path d="m74.2676 25.293q4.6386 0 7.7636-3.125 3.125-3.125 3.125-7.7637v-19.53125h1.0254q10.1075 0 17.4564 2.56347 7.348 2.56348 12.573 7.47071 5.225 4.90722 9.033 11.88967 2.393 4.248 5.078 5.9082 2.686 1.6601 6.104 1.6601 4.98 0 7.763-4.8828 2.784-4.8828 2.784-14.69724 0-16.45506-3.882-29.39456-3.882-12.9394-11.597-21.9482-7.715-9.0088-19.067-13.6963-11.353-4.6875-26.2454-4.6875h-1.0254v-19.7266q0-4.6875-3.125-7.8857-3.125-3.1983-7.8124-3.1983-2.9297 0-5.4444 1.2452-2.5146 1.2451-5.6885 4.1748l-50.2929 46.5332q-1.9532 1.8066-2.88089 4.0771-.92773 2.2705-.92773 4.5166 0 2.0996.95214 4.4434.95218 2.3437 2.90528 4.1504l50.2441 46.6308q2.9297 2.7832 5.5176 4.0284 2.5879 1.2451 5.6641 1.2451zm-4.7852-21.8262q-.4883 0-.9765-.48828l-39.3555-37.06052q-.3418-.3418-.4883-.6104-.1465-.2685-.1465-.5127 0-.2929.1465-.5615.1465-.2686.4883-.6104l39.3555-37.2558q.1953-.2442.4638-.3418.2686-.0977.5127-.0977 1.0742 0 1.0742 1.1231v21.289q0 2.0508 2.002 2.0508h7.2754q13.2812 0 23.096 3.6377 9.814 3.6377 16.284 10.376 6.47 6.7383 9.741 16.1133 3.272 9.375 3.516 20.84959 0 .53711-.44.53711-.146 0-.293-.12207-.146-.12207-.293-.41504-3.808-7.8125-10.815-12.69529-7.007-4.8828-17.212-7.1778-10.2051-2.2949-23.584-2.2949h-7.2754q-2.002 0-2.002 2.002v21.09372q0 1.17188-1.0742 1.17188z" transform="translate(2555.63 1556)"/><path d="m72.8516 24.0723q4.0527 0 6.7382-2.71 2.6856-2.71 2.6856-6.7139v-21.38668h1.3672q11.0351 0 19.2134 2.53906 8.179 2.53906 14.112 7.8125 5.932 5.27344 10.18 13.37892 2.1 3.7598 4.468 5.1269 2.368 1.3672 5.298 1.3672 4.004 0 6.445-3.8818 2.442-3.8818 2.442-11.54786 0-16.94336-3.906-30.22464-3.907-13.2812-11.719-22.4853-7.813-9.2041-19.458-13.9893-11.6457-4.7851-27.0754-4.7851h-1.3672v-21.4356q0-4.1015-2.6856-6.9092-2.6855-2.8076-6.7871-2.8076-2.6855 0-4.8828 1.1475-2.1972 1.1474-5.0781 3.7842l-50.0488 46.4355q-1.9532 1.8555-2.7832 3.9063-.83011 2.0507-.83011 4.0527 0 1.9043.85451 4.0283.8545 2.124 2.8076 3.9307l50 46.6797q2.6367 2.4414 4.9561 3.5644 2.3193 1.1231 5.0537 1.1231zm-4.1504-18.21292q-.4883 0-1.0742-.53711l-41.6016-39.20897q-.4395-.4395-.5859-.7569-.1465-.3173-.1465-.6103 0-.3418.1709-.6348.1709-.2929.5615-.7324l41.6016-39.4531q.2441-.2442.5126-.3662.2686-.1221.5616-.1221 1.0254 0 1.0254 1.0742v22.8516q0 2.0508 2.0019 2.0508h7.3731q14.1113 0 24.3404 4.0527 10.23 4.0527 16.822 11.4014 6.591 7.3486 9.863 17.3339 3.271 9.9854 3.564 21.89946 0 .63477-.488.63477-.195 0-.342-.1709-.146-.1709-.293-.5127-3.808-8.05664-11.035-13.33007-7.226-5.27346-17.846-7.88576-10.6206-2.6123-24.5854-2.6123h-7.3731q-2.0019 0-2.0019 2.002v22.50973q0 1.12305-1.0254 1.12305z" transform="translate(2259.58 1556)"/><path d="m71.875 23.1934q3.6621 0 6.0303-2.3926 2.3681-2.3926 2.3681-6.0059v-22.6074h1.6114q11.6699 0 20.4342 2.51465 8.765 2.51465 15.161 8.03223 6.397 5.51757 10.987 14.35542 1.855 3.418 4.028 4.5899 2.173 1.1719 4.712 1.1719 3.369 0 5.591-3.1739 2.222-3.1738 2.222-9.375 0-17.28512-3.956-30.7861-3.955-13.501-11.84-22.8516-7.886-9.3505-19.727-14.2089-11.8408-4.8584-27.6122-4.8584h-1.6114v-22.6075q0-3.6621-2.3925-6.2011-2.3926-2.5391-6.1036-2.5391-2.4414 0-4.4677 1.0986-2.0264 1.0987-4.6143 3.4912l-49.9023 46.3868q-1.9532 1.8554-2.7344 3.7841-.78126 1.9288-.78126 3.7354 0 1.7578.78126 3.7109.7812 1.9532 2.7344 3.7598l49.9023 46.6797q2.3926 2.1973 4.5166 3.2471 2.124 1.0498 4.6631 1.0498zm-3.7109-15.7227q-.5371 0-1.1231-.58593l-43.164-40.62497q-.5372-.4395-.7081-.8057-.1709-.3662-.1709-.708 0-.3418.1954-.6836.1953-.3418.6836-.8301l43.1152-40.9668q.2441-.2441.5371-.3906.293-.1465.6348-.1465.9765 0 .9765 1.0254v23.9746q0 2.002 2.002 2.002h7.4219q14.6972 0 25.1955 4.3457 10.498 4.3457 17.187 12.1338 6.69 7.788 9.961 18.1884 3.272 10.40043 3.565 22.55863 0 .68359-.489.68359-.244 0-.366-.19531-.122-.19531-.317-.53711-3.809-8.20312-11.182-13.76953-7.373-5.56637-18.262-8.39847-10.8882-2.832-25.2925-2.832h-7.4219q-2.002 0-2.002 2.002v23.48628q0 1.07422-.9765 1.07422z" transform="translate(1963.34 1556)"/><path d="m71.1426 22.5586q3.3203 0 5.4443-2.1973 2.124-2.1972 2.124-5.4687v-23.53518h1.8067q12.207 0 21.3864 2.51465 9.18 2.51465 15.943 8.20313 6.762 5.68847 11.596 15.1123 1.709 3.125 3.711 4.1504 2.002 1.0254 4.297 1.0254 2.881 0 4.907-2.6367 2.027-2.6368 2.027-7.7149 0-17.52928-3.955-31.2256-3.955-13.6963-11.914-23.1445-7.959-9.4482-19.947-14.3555-11.987-4.9072-28.0514-4.9072h-1.8067v-23.4863q0-3.3692-2.1484-5.6885-2.1484-2.3193-5.5176-2.3193-2.3437 0-4.1992 1.0498-1.8555 1.0498-4.2969 3.247l-49.7558 46.3868q-1.9532 1.8554-2.6856 3.6621-.7324 1.8066-.7324 3.5156 0 1.6113.7324 3.4668.7324 1.8555 2.6856 3.6621l49.7558 46.6797q2.2461 2.0508 4.2237 3.0273 1.9775.9766 4.3701.9766zm-3.418-13.86719q-.5371 0-1.1719-.58594l-44.3359-41.74807q-.5371-.4883-.708-.8789-.1709-.3906-.1709-.7324 0-.3906.1953-.7568.1953-.3663.6836-.8545l44.2871-42.1387q.293-.2441.5859-.3906.293-.1465.6348-.1465.9766 0 .9766.9765v24.7559q0 2.0508 2.0019 2.0508h7.4707q15.1856 0 25.8792 4.541 10.693 4.541 17.431 12.6709 6.739 8.1299 10.035 18.8477 3.295 10.71773 3.588 23.07125 0 .73242-.488.73242-.293 0-.415-.21973-.122-.21972-.317-.56152-3.809-8.300782-11.28-14.08692-7.47-5.7861-18.603-8.7891-11.1329-3.0029-25.8302-3.0029h-7.4707q-2.0019 0-2.0019 2.002v24.21872q0 1.02539-.9766 1.02539z" transform="translate(1666.97 1556)"/><path d="m70.166 21.7285q2.9297 0 4.7608-1.9043 1.831-1.9043 1.831-4.7851v-24.7559h2.0508q12.8418 0 22.5834 2.49024 9.741 2.49023 16.967 8.42285 7.227 5.93262 12.403 16.13771 1.465 2.7832 3.271 3.5889 1.807.8056 3.711.8056 2.295 0 4.077-1.9531 1.783-1.9531 1.783-5.5664 0-17.82228-3.98-31.7383-3.979-13.916-12.012-23.5107-8.032-9.5948-20.215-14.5752-12.1822-4.9805-28.5884-4.9805h-2.0508v-24.6582q0-2.9297-1.8555-4.9805-1.8554-2.0508-4.8339-2.0508-2.1485 0-3.8086.9766-1.6602.9766-3.8575 2.9785l-49.6093 46.3379q-1.9532 1.8555-2.6368 3.5156-.68354 1.6602-.68354 3.2227 0 1.4648.68354 3.1494.6836 1.6846 2.6368 3.4912l49.6093 46.6797q2.002 1.8555 3.8086 2.7588 1.8067.9033 3.9551.9033zm-2.9785-11.4258q-.5371 0-1.2207-.5859l-45.8984-43.2129q-.586-.5371-.7813-.9521-.1953-.4151-.1953-.8057 0-.4395.2197-.8301.2197-.3906.7569-.9277l45.8496-43.6524q.2929-.2441.5859-.415.293-.1709.6836-.1709.9277 0 .9277.9277v25.8789q0 2.002 2.002 2.002h7.5683q15.7227 0 26.7095 4.834 10.986 4.834 17.797 13.3789 6.812 8.5449 10.108 19.6777 3.296 11.13283 3.638 23.77932 0 .78128-.538.78128-.293 0-.439-.24418-.147-.24414-.342-.63476-3.808-8.447266-11.426-14.50195-7.617-6.05471-19.018-9.27731-11.4016-3.2227-26.4895-3.2227h-7.5683q-2.002 0-2.002 2.002v25.19527q0 .97653-.9277.97653z" transform="translate(1370.69 1556)"/><path d="m69.2871 20.7031q2.5879 0 4.1016-1.6845 1.5136-1.6846 1.5136-4.126v-25.6836h2.3438q13.6719 0 23.8769 2.6367 10.205 2.63672 17.505 8.666995 7.3 6.030275 12.085 16.137705 1.221 2.4414 2.71 3.2471 1.489.8056 3.198.8056 2.051 0 3.565-1.6845 1.513-1.6846 1.513-4.6631 0-18.31058-4.223-32.1289-4.224-13.8184-12.427-23.0713-8.203-9.253-20.215-13.8916-12.0117-4.6387-27.5879-4.6387h-2.3438v-25.8301q0-2.4902-1.538-4.248-1.5381-1.7578-4.126-1.7578-1.8555 0-3.2959.83-1.4404.8301-3.1494 2.3926l-49.4629 46.1426q-2.1485 2.0019-2.8321 3.5645-.68355 1.5624-.68355 3.0273 0 1.3672.68355 2.9541.6836 1.5869 2.8321 3.5889l49.4629 46.3379q1.6113 1.4648 3.1494 2.2705 1.5381.8056 3.3447.8056zm-2.0019-8.5449q-.6348 0-1.4649-.6836l-47.2656-44.2383q-.8301-.7812-1.1231-1.3672-.2929-.5859-.2929-1.123 0-.5859.3174-1.1719.3173-.5859 1.0986-1.3183l47.2168-44.5313q.3418-.2441.6836-.4639.3418-.2197.7812-.2197 1.0254 0 1.0254 1.0254v27.002q0 1.8554 1.8555 1.8554h6.2988q15.1367 0 26.221 4.541 11.084 4.5411 18.359 13.0372 7.275 8.496 10.913 20.3125 3.638 11.81636 3.882 26.416 0 .9277-.732.9277-.342 0-.538-.3418-.195-.3418-.439-.7812-3.955-9.27739-11.645-15.52739-7.691-6.25001-19.19-9.42381-11.499-3.1738-26.831-3.1738h-6.2988q-1.8555 0-1.8555 1.8554v26.2696q0 1.123-.9765 1.123z" transform="translate(1075.13 1556)"/><path d="m68.1641 19.2871q2.0996 0 3.1738-1.3428 1.0742-1.3427 1.0742-3.2959v-26.8554h2.7832q14.6973 0 25.5367 2.80759 10.84 2.80761 18.262 8.959957 7.422 6.152343 11.719 16.162153.83 2.0019 1.88 2.7832 1.05.7812 2.563.7812 1.66 0 2.832-1.2695 1.172-1.2696 1.172-3.5156 0-18.94536-4.541-32.5928-4.541-13.6475-12.964-22.4365-8.423-8.7891-20.215-13.0127-11.7916-4.2237-26.2447-4.2237h-2.7832v-27.3925q0-1.9532-1.0986-3.3204-1.0987-1.3672-3.1494-1.3672-1.4161 0-2.5879.6592-1.1719.6592-2.2461 1.6846l-49.3653 45.8008q-2.3925 2.2461-3.0273 3.6865-.6348 1.4404-.6348 2.7588 0 1.2695.6592 2.71.6592 1.4404 3.0029 3.6865l49.3653 45.8496q1.0254.9766 2.2217 1.6357 1.1962.6592 2.6123.6592zm-.7813-4.6387q-.6836 0-1.709-.8789l-49.0722-45.5078q-1.2207-1.123-1.6602-1.9287-.4394-.8057-.4394-1.5869 0-.8301.4638-1.6113.4639-.7813 1.6358-1.9043l49.0234-45.6055q.3906-.293.7568-.5859.3662-.293.9034-.293 1.1718 0 1.1718 1.1719v28.5644q0 1.6114 1.6602 1.6114h4.6387q14.3066 0 25.5611 4.1503 11.255 4.1504 19.092 12.5733 7.837 8.4228 11.987 21.1426 4.151 12.71969 4.151 29.956 0 1.0742-.879 1.0742-.488 0-.757-.4394-.268-.4395-.464-1.0254-4.199-10.30274-11.987-16.84571-7.788-6.54297-19.409-9.64359-11.6213-3.1006-27.2951-3.1006h-4.6387q-1.6602 0-1.6602 1.6602v27.7344q0 1.3183-1.0742 1.3183z" transform="translate(779.933 1556)"/><path d="m67.5781 18.6035q1.8555 0 2.71-1.1963.8545-1.1963.8545-2.8564v-27.4903h2.9785q15.2832 0 26.4409 2.9053 11.157 2.90529 18.603 9.13088 7.446 6.22559 11.499 16.13772.684 1.8066 1.514 2.5879.83.7812 2.246.7812 1.465 0 2.441-1.0986.977-1.0987.977-2.9053 0-19.23827-4.688-32.8369-4.687-13.5986-13.232-22.168-8.545-8.5693-20.215-12.5488-11.6699-3.9795-25.5859-3.9795h-2.9785v-28.1738q0-1.6602-.8545-2.8321-.8545-1.1718-2.6611-1.1718-1.2696 0-2.295.5615-1.0254.5615-1.7578 1.2451l-49.2187 45.7031q-2.5391 2.3926-3.1739 3.7598-.6347 1.3672-.6347 2.5879 0 1.2207.6347 2.5879.6348 1.3672 3.1739 3.7109l49.2187 45.6543q.7813.7324 1.8067 1.3184 1.0253.5859 2.1972.5859zm-.1465-2.6855q-.7324 0-1.8554-.9766l-50-46.1914q-1.416-1.2695-1.9043-2.1973-.4883-.9277-.4883-1.8066 0-.9277.5371-1.8555.5371-.9277 1.8555-2.1484l49.9511-46.1914q.3907-.3418.8057-.6592.415-.3174 1.001-.3174 1.2207 0 1.2207 1.2207v29.3457q0 1.5625 1.5625 1.5625h3.8086q13.8672 0 25.1953 3.9551 11.3279 3.9551 19.4829 12.3047 8.154 8.3496 12.524 21.5576 4.37 13.20802 4.321 31.7627 0 1.123-1.025 1.123-.488 0-.806-.4882-.317-.4883-.561-1.1231-4.248-10.83982-12.085-17.50486-7.837-6.66504-19.532-9.76564-11.6939-3.1006-27.5142-3.1006h-3.8086q-1.5625 0-1.5625 1.5625v28.5157q0 1.416-1.1231 1.416z" transform="translate(484.003 1556)"/><path d="m59.3262 13.0859q4.3457 0 7.2998-2.9541 2.9541-2.95407 2.9541-7.25094v-12.8418h.3418q6.7871 0 11.4258 2.0752 4.6386 2.07519 7.7392 5.39551 3.1006 3.320308 5.2002 7.03125 2.1973 3.95507 4.6143 5.68848 2.4166 1.7334 5.8346 1.7334 5.03 0 7.618-5.17579 2.587-5.17578 2.587-15.67383 0-12.25588-3.051-21.77738-3.052-9.5214-8.887-16.0644-5.835-6.543-14.1846-9.9121-8.3496-3.3692-18.8965-3.3692h-.3418v-13.2324q0-4.3457-2.9541-7.2998-2.9541-2.9541-7.2998-2.9541-2.5879 0-4.8584 1.0498-2.2705 1.0498-5.1026 3.6377l-39.3066 36.0352q-1.56251 1.4648-2.39258 3.4912-.83008 2.0263-.83008 4.0771 0 1.9043.8789 4.0283.87891 2.1241 2.44136 3.5889l39.209 36.03517q2.5879 2.44143 4.9073 3.54003 2.3193 1.0986 5.0537 1.0986zm-4.2481-21.14254q-.3906 0-.7812-.39063l-27.5879-25.92773q-.293-.2441-.3906-.4395-.0977-.1953-.0977-.3906 0-.3418.4883-.8301l27.5879-25.9765q.1953-.1465.3906-.1953.1953-.0489.3906-.0489.8789 0 .8789.9278v14.6484q0 1.5137 1.5137 1.5137h5.0293q7.0801 0 13.0371 1.3428 5.957 1.3427 10.6201 4.0771 4.6631 2.7344 7.9346 6.9336 3.2715 4.1992 5.0049 9.8389 1.7333 5.6396 1.7333 12.8174 0 .39058-.293.39058-.146 0-.244-.09766-.098-.09766-.195-.29292-2.9789-5.9571-8.1302-9.2286-5.1514-3.2714-12.4756-4.5654-7.3242-1.2939-16.9922-1.2939h-5.0293q-1.5137 0-1.5137 1.5136v14.64847q0 1.02539-.8789 1.02539z" transform="translate(2870 1126)"/><path d="m58.252 12.2559q3.9062 0 6.5429-2.63676 2.6367-2.63672 2.6367-6.54297v-14.20897h.6348q7.4219 0 12.6709 2.02635 5.249 2.02637 8.9356 5.63965 3.6865 3.613284 6.2744 8.34961 2.0019 3.56446 4.2237 5.0293 2.222 1.46489 5.2 1.46489 4.297 0 6.641-4.34575 2.343-4.3457 2.343-13.13477 0-12.54878-3.027-22.36328-3.027-9.8144-8.935-16.626-5.9086-6.8115-14.5512-10.3515-8.6426-3.5401-19.7754-3.5401h-.6348v-14.4531q0-3.9063-2.6367-6.5674-2.6367-2.6611-6.5429-2.6611-2.3926 0-4.4678.9765-2.0752.9766-4.7119 3.418l-39.11136 36.0352q-1.51367 1.416-2.29492 3.2959-.78125 1.8799-.78125 3.7353 0 1.709.80566 3.6621.80566 1.9532 2.31937 3.3692l39.0625 36.13278q2.3925 2.24612 4.541 3.27152 2.1484 1.0254 4.6387 1.0254zm-3.9063-18.65238q-.3906 0-.7812-.39063l-29.2969-27.58789q-.293-.2441-.3906-.4395-.0977-.1953-.0977-.3906 0-.3906.4883-.8789l29.2969-27.6855q.1953-.1465.3906-.2198.1953-.0732.3906-.0732.8301 0 .8301.8789v15.7715q0 1.5137 1.5625 1.5137h5.3711q7.8125 0 14.0869 1.6357 6.2744 1.6357 11.0351 4.7852 4.7608 3.1494 8.0079 7.7636 3.247 4.6143 4.9317 10.4981 1.684 5.8838 1.733 13.01268 0 .39062-.293.39062-.146 0-.244-.09766-.097-.09765-.195-.29296-2.9786-6.00588-8.2765-9.59478-5.2978-3.5888-12.9639-5.1513-7.666-1.5625-17.8222-1.5625h-5.3711q-1.5625 0-1.5625 1.5137v15.67378q0 .92774-.8301.92774z" transform="translate(2573.63 1126)"/><path d="m57.0801 11.3281q3.4179 0 5.7129-2.2949 2.2949-2.29492 2.2949-5.66406v-15.77144h.8789q8.1055 0 14.0625 1.9531 5.957 1.95311 10.3027 5.88377 4.3457 3.930664 7.5196 9.79004 1.7089 3.17383 3.7104 4.3457 2.002 1.17189 4.493 1.17189 3.515 0 5.566-3.41798 2.051-3.41797 2.051-10.30274 0-12.89058-3.003-23.04688-3.003-10.1562-8.984-17.2607-5.9819-7.1045-14.9174-10.8155-8.9356-3.7109-20.8008-3.7109h-.8789v-15.8691q0-3.3692-2.2949-5.7373-2.295-2.3682-5.7618-2.3682-2.1972 0-4.0283.9277-1.831.9278-4.2236 3.1739l-38.91602 36.0351q-1.51367 1.3672-2.19726 3.0762-.6836 1.709-.6836 3.3203 0 1.5625.70801 3.2959.70801 1.7334 2.22168 3.1494l38.86719 36.23048q2.1484 2.05078 4.1016 2.97852 1.9531.9277 4.1992.9277zm-3.5156-15.86912q-.3907 0-.7813-.39062l-31.2012-29.44336q-.2929-.2441-.415-.4639-.1221-.2197-.1221-.415 0-.3906.5371-.8789l31.1524-29.6387q.1953-.1465.3906-.2441.1953-.0977.4395-.0977.7812 0 .7812.8301v16.9922q0 1.5625 1.5625 1.5625h5.8106q8.5449 0 15.2099 1.9531 6.6651 1.9531 11.5479 5.5908 4.8828 3.6377 8.081 8.6914 3.1983 5.0537 4.8344 11.2305 1.635 6.1768 1.782 13.20801 0 .43946-.342.43946-.146 0-.244-.09766-.098-.09766-.195-.3418-2.9301-6.00581-8.4477-9.93651-5.5176-3.9307-13.5498-5.835-8.0322-1.9043-18.6767-1.9043h-5.8106q-1.5625 0-1.5625 1.5625v16.74808q0 .8789-.7812.8789z" transform="translate(2277.28 1126)"/><path d="m56.25 10.6445q3.0762 0 5.127-2.02634 2.0507-2.02636 2.0507-5.10254v-16.79682h1.0743q8.5937 0 15.039 1.9287 6.4453 1.92867 11.2305 6.05465 4.7851 4.12597 8.3496 10.7666 1.5629 2.88086 3.4179 3.85742 1.856.97653 4.004.97653 2.93 0 4.81-2.80758 1.879-2.80762 1.879-8.27637 0-13.13475-3.003-23.53515-3.002-10.4004-9.033-17.7246-6.03-7.3242-15.1853-11.1572-9.1552-3.833-21.5087-3.833h-1.0743v-16.7969q0-3.0274-2.0507-5.1758-2.0508-2.1484-5.1758-2.1484-2.0508 0-3.7354.9033-1.6846.9033-3.9306 2.9541l-38.76958 36.0351q-1.46484 1.3672-2.0996 2.9541-.63477 1.5869-.63477 3.0518 0 1.416.65918 3.0273.65918 1.6114 2.07519 2.9786l38.76958 36.27925q2.0019 1.9043 3.8086 2.75879 1.8066.85446 3.9062.85446zm-3.2227-13.86716q-.4394 0-.83-.43945l-32.5196-30.66409q-.2929-.2929-.415-.5127-.1221-.2197-.1221-.415 0-.3906.5371-.8789l32.4707-31.0059q.1954-.1465.3907-.2441.1953-.0977.4394-.0977.7324 0 .7324.7813v17.8711q0 1.5625 1.6114 1.5625h6.0547q9.1308 0 16.0644 2.1728 6.9336 2.1729 11.8652 6.128 4.9317 3.955 8.1055 9.3261 3.1739 5.3711 4.7849 11.7432 1.612 6.3721 1.807 13.35448 0 .48829-.391.48829-.146 0-.244-.12207-.098-.12208-.195-.36622-2.881-6.05468-8.5207-10.22948-5.6396-4.1748-13.9404-6.2988-8.3008-2.1241-19.3359-2.1241h-6.0547q-1.6114 0-1.6114 1.6114v17.52927q0 .83007-.6836.83007z" transform="translate(1980.84 1126)"/><path d="m55.6641 10.1562q2.7832 0 4.6386-1.85542 1.8555-1.85547 1.8555-4.63867v-17.62691h1.2207q8.9844 0 15.7959 1.9043 6.8115 1.9043 11.9385 6.20112 5.1269 4.29688 8.9847 11.52344 1.416 2.63672 3.149 3.4668 1.733.83008 3.638.83008 2.539 0 4.248-2.31934 1.709-2.31933 1.709-6.811522 0-13.281278-2.954-23.876978-2.954-10.5957-9.034-18.042-6.0786-7.4463-15.4048-11.3769-9.3262-3.9307-22.0703-3.9307h-1.2207v-17.5293q0-2.7832-1.8555-4.7607-1.8554-1.9776-4.7363-1.9776-1.9531 0-3.5156.8545-1.5625.8545-3.711 2.8565l-38.623 36.0351q-1.46485 1.3184-2.05078 2.8076-.58594 1.4893-.58594 2.8565 0 1.3184.58594 2.8076.58593 1.4893 2.05078 2.8565l38.623 36.32808q1.9532 1.80664 3.6377 2.61231 1.6846.80561 3.6866.80561zm-3.0762-12.40229q-.4395 0-.8301-.43946l-33.4961-31.64065q-.2929-.2929-.415-.5127-.1221-.2197-.1221-.415 0-.3906.5371-.8789l33.4961-32.0313q.1953-.1464.3906-.2685.1954-.1221.3907-.1221.7324 0 .7324.7324v18.5547q0 1.5625 1.6601 1.5625h6.25q9.5215 0 16.6504 2.3438 7.1289 2.3437 12.1094 6.5429 4.9805 4.1993 8.1543 9.8145 3.1743 5.6152 4.7363 12.1338 1.563 6.5185 1.807 13.45213 0 .48828-.391.48828-.146 0-.244-.12207-.098-.12207-.195-.31738-2.881-6.10352-8.6186-10.44926-5.7373-4.3457-14.2334-6.6406-8.4961-2.2949-19.7754-2.2949h-6.25q-1.6601 0-1.6601 1.5625v18.16406q0 .78125-.6836.78125z" transform="translate(1684.32 1126)"/><path d="m54.834 9.52148q2.4902 0 4.1015-1.61132 1.6114-1.61133 1.6114-4.10157v-18.65239h1.416q9.4726 0 16.748 1.8555 7.2754 1.8555 12.8418 6.37209 5.5664 4.5166 9.8143 12.52441 1.27 2.34375 2.857 2.97852 1.587.63476 3.149.63476 1.953 0 3.491-1.68457 1.538-1.68457 1.538-4.85839 0-13.52542-2.954-24.34082-2.954-10.8154-9.082-18.4815-6.1277-7.666-15.6736-11.7187-9.5459-4.0527-22.7295-4.0527h-1.416v-18.4571q0-2.4414-1.6114-4.1992-1.6113-1.7578-4.1992-1.7578-1.8066 0-3.2226.8057-1.416.8056-3.3692 2.6611l-38.52536 36.0352q-1.41602 1.3183-1.95312 2.6855-.53711 1.3672-.53711 2.5879 0 1.1719.53711 2.5391.5371 1.3671 1.95312 2.6855l38.52536 36.37696q1.7578 1.66015 3.3203 2.41699 1.5625.75683 3.3692.75683zm-2.7832-10.498042q-.4395 0-.8301-.439458l-34.8145-32.91018q-.2929-.2929-.415-.5127-.1221-.2197-.1221-.415 0-.4395.5371-.9277l34.7657-33.3496q.1953-.1465.3906-.2686.1953-.1221.4395-.1221.6835 0 .6835.6836v19.3848q0 1.6113 1.6602 1.6113h6.543q10.0586 0 17.4316 2.5635 7.3731 2.5635 12.4512 7.0801 5.0781 4.5166 8.2031 10.4248 3.1254 5.9082 4.6634 12.622 1.538 6.71391 1.831 13.59868 0 .5371-.391.5371-.146 0-.244-.12207-.098-.12207-.195-.36621-2.881-6.10351-8.7406-10.6934-5.8593-4.5898-14.624-7.1044-8.7646-2.5147-20.3857-2.5147h-6.543q-1.6602 0-1.6602 1.6113v18.89652q0 .732418-.6347.732418z" transform="translate(1387.86 1126)"/><path d="m54.1016 8.59375q2.1484 0 3.4668-1.41602 1.3183-1.41601 1.3183-3.51562v-19.48241h1.6602q10.2051 0 17.9199 1.9775 7.7148 1.9776 13.3545 6.59182 5.6396 4.61426 9.4967 12.52442 1.075 2.05078 2.369 2.68554 1.293.63477 2.709.63477 1.709 0 3.003-1.44043 1.294-1.44043 1.294-4.02832 0-13.9648-3.173-24.707-3.174-10.7422-9.4487-18.0664-6.2744-7.3243-15.6738-11.084-9.3995-3.7598-21.8506-3.7598h-1.6602v-19.5312q0-2.0996-1.3183-3.5889-1.3184-1.4893-3.5645-1.4893-1.5137 0-2.7588.708-1.2451.7081-2.7588 2.1729l-38.4277 35.791q-1.56251 1.5137-2.0752 2.7832-.5127 1.2695-.5127 2.3926 0 1.123.5127 2.3926.51269 1.2695 2.0752 2.7343l38.4277 36.08403q1.416 1.31836 2.7344 1.97754 1.3184.65918 2.8809.65918zm-2.002-7.910156q-.4394 0-.9766-.53711l-36.0351-33.789084q-.5859-.5371-.7813-.9033-.1953-.3662-.1953-.708 0-.7324.9766-1.6113l35.9863-34.0821q.1953-.1953.4395-.3662.2441-.1709.5371-.1709.7812 0 .7812.7813v20.4101q0 1.5137 1.5137 1.5137h5.4199q9.6192 0 16.9922 2.3682 7.3731 2.3681 12.6953 6.7382 5.3223 4.3702 8.7647 10.4249 3.4422 6.0546 5.1762 13.4277 1.733 7.37303 1.928 15.673816 0 .634765-.537.634765-.195 0-.342-.195312-.146-.1953128-.293-.488281-2.978-6.835938-8.9107-11.621088-5.9327-4.7852-14.795-7.251-8.8623-2.4658-20.6787-2.4658h-5.4199q-1.5137 0-1.5137 1.5137v19.873016q0 .830078-.7324.830078z" transform="translate(1092.17 1126)"/><path d="m53.0762 7.32422q1.709 0 2.6367-1.09863.9277-1.09864.9277-2.75879v-20.5566h2.0508q11.1816 0 19.458 2.1484 8.2764 2.1484 13.9893 6.88476 5.7129 4.73633 9.1793 12.5.733 1.66016 1.636 2.27051.903.61035 2.124.61035 1.367 0 2.344-1.07422.976-1.07422.976-2.97852 0-14.50198-3.442-25.12208-3.442-10.6201-9.9365-17.5537-6.4941-6.9336-15.6738-10.2783-9.1797-3.3447-20.6543-3.3447h-2.0508v-20.8985q0-1.6601-.9277-2.7832-.9277-1.123-2.6856-1.123-1.1718 0-2.1484.5371-.9766.5371-1.9043 1.4648l-38.2812 35.5957q-1.80668 1.6602-2.29496 2.8076-.48828 1.1475-.48828 2.1729 0 1.0254.48828 2.1728.48828 1.1475 2.29496 2.8077l38.2812 35.69332q.8789.83008 1.8799 1.36719 1.001.53711 2.2217.53711zm-.8789-4.44336q-.5371 0-1.2696-.68359l-37.5976-34.96097q-.9278-.7812-1.2451-1.3672-.3174-.5859-.3174-1.123 0-1.1231 1.5625-2.4902l37.5488-35.1075q.293-.2441.5859-.4394.293-.1953.6836-.1953.8301 0 .8301.8789v21.7773q0 1.3184 1.3672 1.3184h3.9551q8.9844 0 16.3574 2.0996 7.373 2.0996 13.0127 6.2988 5.6396 4.1992 9.4971 10.4492 3.857 6.25 5.859 14.4776 2.002 8.22752 2.1 18.43259 0 .78125-.684.78125-.341 0-.537-.29296-.195-.29297-.342-.6836-3.173-7.76367-9.2036-12.79298-6.0303-5.0293-15.0147-7.4463-8.9844-2.417-21.0449-2.417h-3.9551q-1.3672 0-1.3672 1.3184v21.1914q0 .97656-.7812.97656z" transform="translate(796.827 1126)"/><path d="m52.5879 6.68945q1.4648 0 2.1973-.97656.7324-.97656.7324-2.34375v-21.14254h2.2461q11.6699 0 20.2148 2.2461 8.5449 2.2461 14.3311 7.03121 5.7861 4.78515 8.9604 12.54882.585 1.41602 1.293 2.02637.708.61035 1.88.61035 1.172 0 1.978-.90332.806-.90332.806-2.41699 0-14.84374-3.589-25.39064-3.589-10.5469-10.181-17.2363-6.5918-6.6895-15.6494-9.8389-9.0576-3.1494-20.0439-3.1494h-2.2461v-21.6309q0-1.416-.7324-2.3681-.7325-.9522-2.2461-.9522-.9766 0-1.8311.4639-.8545.4639-1.5381 1.1475l-38.1836 35.4004q-1.90427 1.8066-2.39255 2.8808-.48828 1.0742-.48828 2.0508 0 .9766.51269 2.0508.5127 1.0742 2.36814 2.832l38.1836 35.49805q.6836.63477 1.5137 1.09864.8301.46386 1.9043.46386zm-.3418-2.68554q-.5371 0-1.3672-.73243l-38.4766-35.54688q-1.0742-.9766-1.4404-1.6601-.3662-.6836-.3662-1.3184 0-1.3184 1.8066-2.9785l38.4278-35.5469q.2441-.293.5859-.5371.3418-.2441.7813-.2441.8789 0 .8789.9765v22.461q0 1.2695 1.2695 1.2695h3.1738q8.6914 0 16.0645 1.9531 7.373 1.9531 13.1836 6.0791 5.8105 4.126 9.8877 10.4492 4.0767 6.3233 6.2007 14.9903 2.124 8.66696 2.173 19.89742 0 .83008-.781.83008-.342 0-.586-.34179-.244-.3418-.439-.83008-3.223-8.25195-9.3021-13.40333-6.0791-5.1514-15.1367-7.5195-9.0576-2.3682-21.2647-2.3682h-3.1738q-1.2695 0-1.2695 1.2207v21.87502q0 1.02539-.8301 1.02539z" transform="translate(500.8 1126)"/><path d="m46.7773 2.83203q3.5157 0 5.9082-2.392577 2.3926-2.392573 2.3926-5.908203v-9.66795h.1953q5.1758 0 8.6426 1.6601 3.4668 1.6602 5.7129 4.17484 2.2461 2.51465 3.7109 5.10254 1.8067 3.17383 3.7354 4.614259 1.9287 1.440431 4.7119 1.440431 4.1992 0 6.2744-4.29688 2.0752-4.29687 2.0752-12.98829 0-12.7441-4.248-21.5576-4.2481-8.8135-12.0606-13.3545-7.8125-4.541-18.5547-4.541h-.1953v-10.0586q0-3.5156-2.3926-5.9082-2.3925-2.3926-5.9082-2.3926-2.0996 0-3.9062.8301-1.8066.8301-4.1016 2.8809l-30.81052 28.2226q-1.2207 1.1719-1.90429 2.8076-.6836 1.6358-.6836 3.2959 0 1.5137.70801 3.2471.70801 1.7334 1.92871 2.9053l30.76169 28.173794q2.0996 1.953126 3.9307 2.832026 1.831.87891 4.0771.87891zm-3.4179-17.18753q-.293 0-.586-.2929l-21.1914-19.8731q-.1953-.2441-.2929-.3906-.0977-.1465-.0977-.293 0-.2929.3906-.6836l21.1914-19.873q.1465-.0977.293-.1465.1465-.0488.293-.0488.7324 0 .7324.7812v11.1817q0 1.1718 1.1719 1.1718h3.7597q5.3223 0 9.8633.9522 4.541.9521 8.2031 2.9785 3.6622 2.0264 6.25 5.1758 2.5879 3.1494 3.9551 7.5439 1.3672 4.3946 1.3672 10.1074 0 .293-.2441.293-.1953 0-.3418-.293-3.5645-7.08-10.7422-9.3017-7.1778-2.2217-18.3106-2.2217h-3.7597q-1.1719 0-1.1719 1.1719v11.2305q0 .83-.7324.83z" transform="translate(2883.69 696)"/><path d="m45.9473 2.24609q3.2226 0 5.3711-2.1484338 2.1484-2.1484362 2.1484-5.3710962v-10.74216h.3906q5.6153 0 9.5703 1.6113 3.9551 1.6113 6.6895 4.3457 2.7344 2.73438 4.6875 6.20118 1.6113 2.880858 3.418 4.101561 1.8066 1.220699 4.248 1.220699 3.5645 0 5.4688-3.61328 1.9043-3.61328 1.9043-10.88866 0-13.0371-4.1993-22.2168-4.1992-9.1797-12.207-14.0381-8.0078-4.8584-19.5801-4.8584h-.3906v-10.9863q0-3.1738-2.1729-5.3467-2.1728-2.1728-5.3466-2.1728-1.9532 0-3.6133.8056-1.6602.8057-3.8574 2.71l-30.6641 28.2715q-1.17188 1.123-1.80664 2.6367-.63477 1.5136-.63477 3.0273 0 1.3672.65918 2.9541.65918 1.5869 1.78223 2.71l30.6641 28.27147q2.0019 1.855468 3.7109 2.68555 1.709.83007 3.7598.83007zm-3.2227-15.38089q-.293 0-.5859-.2929l-22.461-21.1914q-.1953-.1954-.2685-.3174-.0733-.1221-.0733-.2686 0-.2929.3418-.6347l22.461-21.2403q.1465-.0976.2929-.1709.1465-.0732.293-.0732.6836 0 .6836.7324v12.0117q0 1.2207 1.2207 1.2207h4.1992q6.0059 0 10.8399 1.2207 4.834 1.2207 8.5449 3.6133 3.7109 2.3926 6.2256 5.8838 2.5146 3.4912 3.8086 8.0078 1.2939 4.5166 1.3916 9.9854 0 .3418-.2442.3418-.1953 0-.3418-.293-3.5156-6.9824-11.0107-9.7168-7.4951-2.7344-19.2139-2.7344h-4.1992q-1.2207 0-1.2207 1.2207v11.9141q0 .7812-.6836.7812z" transform="translate(2587.13 696)"/><path d="m45.0684 1.5625q2.832 0 4.7363-1.879883 1.9043-1.879887 1.9043-4.711917v-11.9629h.5859q6.1035 0 10.5713 1.5381 4.4678 1.5381 7.7637 4.541 3.2959 3.00294 5.7861 7.4463 1.416 2.587894 3.0762 3.5644562 1.6601.9765638 3.7109.9765638 2.9297 0 4.6387-2.88086 1.709-2.88086 1.709-8.59376 0-13.2812-4.126-22.9248-4.126-9.6436-12.4023-14.8193-8.2764-5.1758-20.7276-5.1758h-.5859v-12.0117q0-2.7832-1.9287-4.7364-1.9287-1.9531-4.7608-1.9531-1.8066 0-3.3203.7569-1.5137.7568-3.5156 2.6123l-30.56641 28.2714q-1.07422 1.0743-1.63574 2.4414-.56153 1.3672-.56153 2.6856 0 1.2695.56153 2.6855.56152 1.4161 1.68457 2.4903l30.51758 28.41794q1.8066 1.7089881 3.3935 2.465824 1.587.756836 3.4913.756836zm-3.0274-13.3789q-.293 0-.5371-.2441l-23.9258-22.6563q-.1953-.1465-.2685-.2686-.0733-.122-.0733-.2685 0-.2441.3418-.5371l23.9258-22.8028q.0977-.0976.2441-.1708.1465-.0733.293-.0733.6348 0 .6348.6348v12.9394q0 1.2696 1.2695 1.2696h4.6875q6.7383 0 11.8897 1.5136 5.1513 1.5137 8.9111 4.3457 3.7598 2.8321 6.2012 6.6651 2.4414 3.833 3.6865 8.5205 1.2451 4.6875 1.3916 9.9121 0 .293-.2441.293-.1954 0-.293-.293-3.4668-6.8359-11.3526-10.1563-7.8857-3.3203-20.1904-3.3203h-4.6875q-1.2695 0-1.2695 1.2696v12.7929q0 .6348-.6348.6348z" transform="translate(2290.59 696)"/><path d="m44.4336 1.12305q2.5391 0 4.2725-1.708988 1.7334-1.708982 1.7334-4.248042v-12.79302h.7324q6.4453 0 11.3037 1.4649 4.8584 1.4648 8.5205 4.6631 3.6621 3.19822 6.4941 8.32517 1.3184 2.343752 2.8809 3.1494159 1.5625.8056641 3.3691.8056641 2.4414 0 4.0039-2.36816 1.5625-2.36817 1.5625-7.00684 0-13.47655-4.0771-23.38865-4.0772-9.9121-12.5-15.3321-8.4229-5.4199-21.5576-5.4199h-.7324v-12.6953q0-2.5391-1.7334-4.3457-1.7334-1.8066-4.3213-1.8066-1.7578 0-3.1494.7568-1.3916.7568-3.2959 2.5147l-30.4688 28.2714q-1.02539 1.0254-1.53808 2.295-.5127 1.2695-.5127 2.4902 0 1.1719.5127 2.4658.51269 1.294 1.58691 2.3193l30.41997 28.51568q1.7089 1.611323 3.2226 2.343745 1.5137.732425 3.2715.732425zm-2.8809-11.96285q-.2929 0-.5371-.293l-24.9511-23.6328q-.1465-.1465-.1954-.2442-.0488-.0976-.0488-.2441 0-.1953.2442-.4883l24.9511-23.8769q.0977-.0977.2442-.1709.1464-.0733.2929-.0733.586 0 .586.586v13.5742q0 1.2695 1.2695 1.2695h5.0781q7.2266 0 12.6221 1.7334 5.3955 1.7334 9.1797 4.8584 3.7842 3.125 6.1767 7.2266 2.3926 4.1015 3.5889 8.8623 1.1963 4.7607 1.3916 9.8388 0 .293-.2441.293-.1953 0-.293-.293-3.418-6.7871-11.5478-10.4736-8.1299-3.6865-20.8741-3.6865h-5.0781q-1.2695 0-1.2695 1.2695v13.3301q0 .6348-.586.6348z" transform="translate(1994 696)"/><path d="m43.9941.732422q2.3438 0 3.9307-1.538086 1.5869-1.538086 1.5869-3.881836v-13.4766h.8301q6.6894 0 11.8164 1.4405 5.127 1.4404 9.082 4.7851 3.9551 3.34475 7.1289 8.95998 1.1719 2.19727 2.6612 2.8808638 1.4892.6835942 3.1006.6835942 2.0996 0 3.54-1.977538 1.4404-1.97754 1.4404-5.78613 0-13.62307-4.0283-23.77927-4.0283-10.1563-12.5976-15.7471-8.5694-5.5908-22.1436-5.5908h-.8301v-13.2324q0-2.3926-1.6113-4.0528-1.6113-1.6601-4.0039-1.6601-1.6602 0-2.9785.7324-1.3184.7324-3.1739 2.4414l-30.32222 28.2715q-1.0254 1.0254-1.51368 2.2217-.48828 1.1962-.48828 2.3193 0 1.0742.48828 2.2949.48828 1.2207 1.51368 2.2461l30.32222 28.56446q1.6602 1.513674 3.1006 2.1972681 1.4405.6835939 3.1494.6835939zm-2.7832-10.888622q-.2929 0-.5371-.2442l-25.6836-24.4141q-.1464-.0976-.2197-.2197-.0732-.122-.0732-.2197 0-.1953.2929-.4395l25.6836-24.707q.0977-.0976.2442-.1709.1465-.0732.2929-.0732.5371 0 .5371.5371v14.0625q0 1.3183 1.3184 1.3183h5.3223q7.6172 0 13.1592 1.8799 5.5419 1.8799 9.375 5.2002 3.833 3.3203 6.1767 7.6172 2.3438 4.2969 3.4912 9.1553 1.1475 4.8584 1.3916 9.79 0 .3418-.2441.3418-.1465 0-.2442-.293-3.3691-6.7382-11.7187-10.7421-8.3496-4.0039-21.3867-4.0039h-5.3223q-1.3184 0-1.3184 1.3183v13.7695q0 .5372-.5371.5372z" transform="translate(1697.39 696)"/><path d="m43.3594.292969q2.0996 0 3.5156-1.367189 1.416-1.36719 1.416-3.4668v-14.25778h.9766q7.0312 0 12.5244 1.3916 5.4932 1.3916 9.8144 4.9072 4.3213 3.51562 7.837 9.81445 1.0742 1.953128 2.4658 2.465823 1.3916.512696 2.7099.512696 1.6602 0 2.9786-1.464849 1.3183-1.46484 1.3183-4.19921 0-13.81841-4.0039-24.26761-4.0039-10.4492-12.7197-16.2597-8.7158-5.8106-22.9248-5.8106h-.9766v-13.9648q0-2.0996-1.4404-3.6133-1.4404-1.5137-3.5889-1.5137-1.5625 0-2.7588.708-1.1963.708-2.9541 2.3194l-30.27341 28.3203q-.97656.9765-1.41601 2.0752-.43946 1.0986-.43946 2.124 0 .9766.43946 2.0752.43945 1.0986 1.41601 2.0752l30.27341 28.66209q1.5625 1.41602 2.9053 2.075199 1.3428.65918 2.9053.65918zm-2.6367-9.521489q-.293 0-.5372-.24414l-26.6601-25.39064q-.1465-.0976-.1953-.1953-.0489-.0976-.0489-.1953 0-.1953.2442-.3906l26.6601-25.7813q.0977-.0976.2442-.1709.1465-.0732.293-.0732.4882 0 .4882.4883v14.6972q0 1.3184 1.3672 1.3184h5.6641q8.1055 0 13.8916 2.0996 5.7861 2.0996 9.6435 5.7129 3.8575 3.6133 6.1524 8.1543 2.2949 4.541 3.3935 9.4971 1.0987 4.956 1.3916 9.6923 0 .34183-.2441.34183-.1465 0-.2441-.29297-3.3204-6.64066-11.9141-11.03516-8.5937-4.3945-22.0703-4.3945h-5.6641q-1.3672 0-1.3672 1.3672v14.3066q0 .48828-.4882.48828z" transform="translate(1400.8 696)"/><path d="m42.6758-.537109q1.8066 0 2.9541-1.171871 1.1474-1.17188 1.1474-2.97852v-14.9414h1.2207q7.7149 0 13.5743 1.4893 5.8593 1.4892 10.2539 5.0781 4.3945 3.58884 7.5683 9.83884.8789 1.66016 2.0264 2.17286 1.1475.512691 2.3193.512691 1.416 0 2.5391-1.220701 1.123-1.22071 1.123-3.51563 0-14.30666-4.2968-24.51176-4.2969-10.205-13.0127-15.5761-8.7158-5.3711-22.0948-5.3711h-1.2207v-14.8926q0-1.8066-1.1718-3.0762-1.1719-1.2695-2.9785-1.2695-1.3184 0-2.3682.6103-1.0498.6104-2.417 1.8799l-30.12696 28.125q-1.17187 1.1231-1.58691 2.1485-.41504 1.0254-.41504 1.9531 0 .9277.41504 1.9287.41504 1.001 1.58691 2.124l30.12696 28.36917q1.2695 1.17187 2.3926 1.7334 1.123.561521 2.4414.561521zm-1.9043-7.226561q-.3418 0-.6836-.3418l-27.7344-26.17183q-.3906-.293-.5127-.5127-.122-.2198-.122-.4639 0-.4395.6347-.9766l27.7344-26.4648q.0976-.0977.293-.2197.1953-.1221.3906-.1221.5371 0 .5371.5859v15.5762q0 1.2207 1.2695 1.2207h4.6875q7.666 0 13.4522 1.9287 5.7861 1.9287 9.8633 5.4199 4.0771 3.4912 6.665 8.1543 2.5879 4.6631 3.8574 10.2051 1.2695 5.542 1.4649 11.54786 0 .43946-.3418.43946-.2442 0-.4395-.48829-3.4668-7.61723-12.1338-11.96293-8.667-4.3457-22.3877-4.3457h-4.6875q-1.2695 0-1.2695 1.2207v15.18559q0 .58594-.5371.58594z" transform="translate(1104.99 696)"/><path d="m41.7969-1.66016q1.416 0 2.2217-.92773.8056-.92773.8056-2.24609v-15.91802h1.5137q8.5937 0 14.9658 1.6358 6.3721 1.6357 10.8154 5.3223 4.4434 3.6865 7.2754 9.78999.586 1.36719 1.3916 1.85547.8057.48828 1.7823.48828 1.123 0 1.9531-.90332.8301-.90332.8301-2.51464 0-15.03908-4.6631-24.87798-4.6631-9.8388-13.4033-14.6728-8.7403-4.834-20.9473-4.834h-1.5137v-16.1133q0-1.3672-.8056-2.3193-.8057-.9522-2.2706-.9522-.9765 0-1.8066.4639-.8301.4639-1.709 1.2451l-29.98045 27.9297q-1.36718 1.3184-1.75781 2.2217-.39062.9033-.39062 1.7334 0 .8301.39062 1.7334.39063.9033 1.75781 2.2217l29.98045 27.97849q.8301.78125 1.6846 1.2207.8545.43945 1.8799.43945zm-.9278-4.10156q-.3906 0-.9277-.48828l-29.1992-27.1973q-.6348-.5859-.83009-1.0009-.19531-.4151-.19531-.8057 0-.7813 1.0254-1.8066l29.1504-27.295q.1953-.1465.415-.3174.2197-.1709.5127-.1709.6836 0 .6836.6836v16.7969q0 1.0742 1.0742 1.0742h3.3692q7.1777 0 12.9394 1.709 5.7617 1.709 10.1319 5.0293 4.3701 3.3203 7.3242 8.1543 2.9541 4.834 4.4677 11.1572 1.5137 6.3233 1.6114 13.94047 0 .58594-.5371.58594-.3418 0-.6348-.78125-3.7109-8.78906-12.4512-13.11036-8.7402-4.3213-22.8515-4.3213h-3.3692q-1.0742 0-1.0742 1.0742v16.35746q0 .73242-.6348.73242z" transform="translate(809.474 696)"/><path d="m41.3086-2.19727q1.2207 0 1.8555-.80566.6347-.80566.6347-1.92871v-16.40626h1.709q9.0332 0 15.6494 1.709 6.6162 1.709 11.1084 5.4443 4.4922 3.7354 7.0801 9.8389.4883 1.17187 1.0986 1.66015.6104.48828 1.5381.48828.9766 0 1.6602-.75683.6836-.75684.6836-2.0752 0-15.3809-4.8584-25.0488-4.8584-9.668-13.5987-14.1846-8.7402-4.5166-20.3613-4.5166h-1.709v-16.748q0-1.1719-.6347-1.9776-.6348-.8056-1.8555-.8056-.8301 0-1.5381.3906-.708.3906-1.2939.9765l-29.93168 27.8321q-1.46484 1.3672-1.85547 2.2217-.39062.8544-.39062 1.6357 0 .7812.39062 1.6357.39063.8545 1.85547 2.2217l29.93168 27.83205q.5859.58593 1.2939.97656.708.39062 1.5381.39062zm-.3906-2.58789q-.4395 0-1.0742-.53711l-29.88286-27.73433q-.78125-.6836-1.04981-1.1963-.26855-.5127-.26855-1.001 0-.9766 1.31836-2.1973l29.88286-27.7343q.1953-.1954.4394-.3907.2441-.1953.5859-.1953.6836 0 .6836.7324v17.4317q0 .9765 1.0254.9765h2.7344q6.8359 0 12.6221 1.6114 5.7861 1.6113 10.2783 4.834 4.4922 3.2226 7.6416 8.1543 3.1494 4.9316 4.7851 11.621 1.6358 6.6895 1.6846 15.18559 0 .63477-.5859.63477-.3906 0-.7813-.87891-3.8086-9.47265-12.5976-13.76955-8.7891-4.2969-23.0469-4.2969h-2.7344q-1.0254 0-1.0254 1.0254v16.94339q0 .78125-.6347.78125z" transform="translate(513.398 696)"/></svg>